<?xml version="1.0" encoding="UTF-8"?>
<!DOCTYPE svg PUBLIC "-//W3C//DTD SVG 1.1//EN" "http://www.w3.org/Graphics/SVG/1.1/DTD/svg11.dtd">
<!-- Creator: CorelDRAW -->
<svg xmlns="http://www.w3.org/2000/svg" xml:space="preserve" width="116.159mm" height="104.727mm" version="1.1" style="shape-rendering:geometricPrecision; text-rendering:geometricPrecision; image-rendering:optimizeQuality; fill-rule:evenodd; clip-rule:evenodd"
viewBox="0 0 11615.88 10472.76"
 xmlns:xlink="http://www.w3.org/1999/xlink"
 xmlns:xodm="http://www.corel.com/coreldraw/odm/2003">
 <defs>
  <style type="text/css">
   <![CDATA[
    .fil1 {fill:url(#id0)}
    .fil0 {fill:url(#id1)}
    .fil2 {fill:url(#id2)}
   ]]>
  </style>
  <linearGradient id="id0" gradientUnits="userSpaceOnUse" x1="9555.06" y1="10502.17" x2="9598.4" y2="16.76">
   <stop offset="0" style="stop-opacity:1; stop-color:#0040FF"/>
   <stop offset="0.709804" style="stop-opacity:1; stop-color:#3F85FF"/>
   <stop offset="1" style="stop-opacity:1; stop-color:#7FCAFF"/>
  </linearGradient>
  <linearGradient id="id1" gradientUnits="userSpaceOnUse" x1="2743.24" y1="10502.17" x2="2667.71" y2="114.49">
   <stop offset="0" style="stop-opacity:1; stop-color:#00AFEF"/>
   <stop offset="0.721569" style="stop-opacity:1; stop-color:#006BF7"/>
   <stop offset="1" style="stop-opacity:1; stop-color:#0026FF"/>
  </linearGradient>
  <radialGradient id="id2" gradientUnits="objectBoundingBox" cx="50%" cy="50%" r="50%" fx="50%" fy="50%">
   <stop offset="0" style="stop-opacity:1; stop-color:#A3CEFF"/>
   <stop offset="0.258824" style="stop-opacity:1; stop-color:#516BFF"/>
   <stop offset="1" style="stop-opacity:1; stop-color:#0009FF"/>
  </radialGradient>
 </defs>
 <g id="Layer_x0020_1">
  <metadata id="CorelCorpID_0Corel-Layer"/>
  <g id="_1828333101680">
   <path class="fil0" d="M3864.88 9245.61l4.24 8.67c65.22,-237.22 155.05,-439.84 177.29,-721.38 21.91,-277.39 5.9,-603.49 6.81,-886.33l0.45 -6.47 -0.45 -788.13 0.37 -5.73 -0.25 -789.46 0.2 -4.4 -3.13 -815.21c35.33,-616.3 248.89,-1075.32 563.78,-1381.14 301.25,-292.58 756.98,-541.04 1331.63,-557.74 -4.2,-78.24 -23.73,-81.29 -75.06,-142.57 -63.02,-75.24 -57.81,-52.16 -77.21,-127.68 -81.63,-47.65 -728.77,-862.89 -811.8,-985.05l-1517.19 -1905.56c-24.51,-39.56 -19.78,-26.7 -28.56,-64.94 -94.07,-60.38 -86.2,-60.84 -170.06,-63.79 -699.79,-24.68 -1536.11,537.82 -1848.27,1283.07 -206.81,493.74 -159.6,921.7 -158.24,1505.91l-0.06 4948.4c-1.47,554.4 71.09,1055.34 -192.1,1481.14 -198.94,321.83 -520.71,557.11 -1065.45,593.21l-1.82 631.32c544.54,21.48 2052.14,54.2 2496.23,-64.73 727.05,-194.7 1029.2,-585.35 1368.65,-1141.41z"/>
   <path class="fil1" d="M7547.5 5244.5c-22.44,1069.04 -821.08,1884.6 -1895.81,1914.38 32.79,133.06 101.89,132.1 144.63,239.33l787.31 976.39c35.39,34.1 23.29,19.27 32.11,62.06 108.51,77.24 239.54,275.15 330.71,390.66 57.27,72.55 99.79,126.76 152.59,191.27 102.07,124.71 125.31,115.55 148.28,223.71 68.75,27.12 34.3,5.12 89.43,67.92 17.08,19.44 36.57,48.15 57.6,74.96 176.33,224.79 762.73,933.65 834.82,1066.98 978.92,34.01 1716.74,-659.31 1977.64,-1345.76 183.73,-483.39 137.04,-921.18 137.68,-1492.64l0.32 -4921.94c0.57,-532.25 -68.8,-1060.12 188.67,-1464.13 202.85,-318.32 527.37,-554.48 1052.99,-589.68 46.95,-134.45 25.57,-468.82 17.45,-623.82 -333.32,-23.22 -2009.95,-19.41 -2307.91,22.46 -639.55,89.86 -1140.5,500.4 -1403.9,905.24 -413.38,635.36 -339.63,1131.73 -340.66,1988.09 -0.91,751.46 31.61,1572.14 -3.95,2314.52z"/>
   <path class="fil2" d="M4050.41 5237.16c68.7,47.87 115.59,97.3 131.35,171.43 101.09,51.72 47.45,-8.74 90.1,103.18 68.52,41.56 127.68,134.57 192.17,214.52 64.77,80.3 134.33,144.45 159.33,229.49 94.65,47.89 81.27,54.88 124.31,149.51 49.37,13.26 68.79,56.1 118.92,117.93 45.42,56.02 89.52,98.02 107.8,168.46 97.28,52.53 44.61,-7.65 86.8,101.31 74.38,37.11 201.69,209.79 223.59,283.74 94.88,49.31 61.14,24.1 94.33,112.55 115.08,54.29 131.68,209.59 272.57,269.6 1074.73,-29.78 1873.37,-845.34 1895.81,-1914.38 -58.35,-46.28 -77.11,-82.01 -126.63,-147.59 -43.35,-57.42 -52.44,-88.67 -106.26,-103.02 -67.84,-141.88 -235.67,-318.38 -341.36,-453.77 -112.65,-144.29 -216.35,-267.74 -328.3,-412.61 -98.9,-127.98 -593.62,-781.23 -699.12,-829.23 -574.65,16.7 -1030.38,265.16 -1331.63,557.74 -314.89,305.82 -528.45,764.84 -563.78,1381.14z"/>
  </g>
 </g>
</svg>
