<?xml version="1.0" encoding="UTF-8" standalone="no"?>
<svg
   width="748.29926"
   zoomAndPan="magnify"
   viewBox="0 0 561.22444 175.73128"
   height="234.3084"
   preserveAspectRatio="xMidYMid"
   version="1.0"
   id="svg227"
   xmlns="http://www.w3.org/2000/svg"
   xmlns:svg="http://www.w3.org/2000/svg">
  <defs
     id="defs2">
    <clipPath
       id="a504400118">
      <rect
         x="0"
         width="427"
         y="0"
         height="111"
         id="rect1" />
    </clipPath>
    <clipPath
       id="9a57567057">
      <rect
         x="0"
         width="564"
         y="0"
         height="92"
         id="rect2" />
    </clipPath>
  </defs>
  <g
     fill="#000000"
     fill-opacity="1"
     id="g4"
     transform="translate(-22.390096,-9.2947459)">
    <g
       transform="translate(22.390096,22.169746)"
       id="g3">
      <g
         id="g2">
        <path
           d="m 5.703125,-12.75 h 2.3125 L 9.46875,-8.515625 10.9375,-12.75 h 2.296875 l -2.203125,5.8125 1.625,4.078125 3.609375,-9.921875 H 18.96875 L 13.859375,0 H 11.71875 L 9.46875,-5.359375 7.234375,0 H 5.09375 L 0,-12.78125 h 2.65625 l 3.640625,9.921875 1.59375,-4.078125 z m 0,0"
           id="path2" />
      </g>
    </g>
  </g>
  <g
     fill="#000000"
     fill-opacity="1"
     id="g7"
     transform="translate(-22.390096,-9.2947459)">
    <g
       transform="translate(42.056126,22.169746)"
       id="g6">
      <g
         id="g5">
        <path
           d="M 12.078125,-12.78125 V 0 H 9.609375 V -5.453125 H 3.8125 V 0 H 1.328125 V -12.78125 H 3.8125 v 5.171875 h 5.796875 v -5.171875 z m 0,0"
           id="path4" />
      </g>
    </g>
  </g>
  <g
     fill="#000000"
     fill-opacity="1"
     id="g10"
     transform="translate(-22.390096,-9.2947459)">
    <g
       transform="translate(56.180397,22.169746)"
       id="g9">
      <g
         id="g8">
        <path
           d="M 1.328125,0 V -12.78125 H 3.8125 V 0 Z m 0,0"
           id="path7" />
      </g>
    </g>
  </g>
  <g
     fill="#000000"
     fill-opacity="1"
     id="g13"
     transform="translate(-22.390096,-9.2947459)">
    <g
       transform="translate(62.04602,22.169746)"
       id="g12">
      <g
         id="g11">
        <path
           d="M 10.890625,-10.609375 H 6.796875 V 0 H 4.34375 V -10.609375 H 0.25 v -2.171875 h 10.640625 z m 0,0"
           id="path10" />
      </g>
    </g>
  </g>
  <g
     fill="#000000"
     fill-opacity="1"
     id="g16"
     transform="translate(-22.390096,-9.2947459)">
    <g
       transform="translate(73.903213,22.169746)"
       id="g15">
      <g
         id="g14">
        <path
           d="M 12.078125,-12.78125 V 0 H 9.609375 V -5.453125 H 3.8125 V 0 H 1.328125 V -12.78125 H 3.8125 v 5.171875 h 5.796875 v -5.171875 z m 0,0"
           id="path13" />
      </g>
    </g>
  </g>
  <g
     fill="#000000"
     fill-opacity="1"
     id="g19"
     transform="translate(-22.390096,-9.2947459)">
    <g
       transform="translate(88.027484,22.169746)"
       id="g18">
      <g
         id="g17">
        <path
           d="m 6.78125,0.09375 c -0.9375,0 -1.789062,-0.1757812 -2.546875,-0.53125 C 3.472656,-0.800781 2.816406,-1.289062 2.265625,-1.90625 1.722656,-2.53125 1.300781,-3.226562 1,-4 0.707031,-4.78125 0.5625,-5.578125 0.5625,-6.390625 c 0,-0.851563 0.15625,-1.664063 0.46875,-2.4375 0.320312,-0.769531 0.757812,-1.457031 1.3125,-2.0625 0.5625,-0.613281 1.222656,-1.097656 1.984375,-1.453125 0.757813,-0.351562 1.597656,-0.53125 2.515625,-0.53125 0.914062,0 1.753906,0.1875 2.515625,0.5625 0.769531,0.375 1.421875,0.875 1.953125,1.5 0.539062,0.625 0.960938,1.324219 1.265625,2.09375 0.300781,0.761719 0.453125,1.546875 0.453125,2.359375 0,0.84375 -0.15625,1.65625 -0.46875,2.4375 -0.3125,0.773437 -0.75,1.460937 -1.3125,2.0625 -0.554688,0.605469 -1.210938,1.085937 -1.96875,1.4375 -0.761719,0.34375 -1.59375,0.515625 -2.5,0.515625 z M 3.078125,-6.390625 c 0,0.554687 0.082031,1.089844 0.25,1.609375 0.164063,0.511719 0.40625,0.96875 0.71875,1.375 0.320313,0.398438 0.710937,0.714844 1.171875,0.953125 0.46875,0.230469 0.992188,0.34375 1.578125,0.34375 0.601563,0 1.140625,-0.117187 1.609375,-0.359375 0.46875,-0.25 0.859375,-0.582031 1.171875,-1 0.3125,-0.414062 0.546875,-0.875 0.703125,-1.375 0.164062,-0.507812 0.25,-1.023438 0.25,-1.546875 0,-0.550781 -0.08984,-1.082031 -0.265625,-1.59375 C 10.097656,-8.492188 9.851562,-8.945312 9.53125,-9.34375 9.207031,-9.75 8.816406,-10.066406 8.359375,-10.296875 c -0.460937,-0.238281 -0.980469,-0.359375 -1.5625,-0.359375 -0.605469,0 -1.140625,0.125 -1.609375,0.375 -0.460938,0.242188 -0.84375,0.570312 -1.15625,0.984375 -0.3125,0.40625 -0.554688,0.859375 -0.71875,1.359375 -0.15625,0.5 -0.234375,1.015625 -0.234375,1.546875 z m 0,0"
           id="path16" />
      </g>
    </g>
  </g>
  <g
     fill="#000000"
     fill-opacity="1"
     id="g22"
     transform="translate(-22.390096,-9.2947459)">
    <g
       transform="translate(102.34968,22.169746)"
       id="g21">
      <g
         id="g20">
        <path
           d="m 6.75,0.09375 c -1.023438,0 -1.890625,-0.171875 -2.609375,-0.515625 -0.710937,-0.34375 -1.28125,-0.8125 -1.71875,-1.40625 C 1.984375,-2.429688 1.660156,-3.113281 1.453125,-3.875 1.253906,-4.632812 1.15625,-5.429688 1.15625,-6.265625 v -6.515625 h 2.484375 v 6.515625 c 0,0.53125 0.046875,1.046875 0.140625,1.546875 0.101562,0.492188 0.273438,0.933594 0.515625,1.328125 0.238281,0.398437 0.554687,0.710937 0.953125,0.9375 0.394531,0.230469 0.890625,0.34375 1.484375,0.34375 0.59375,0 1.09375,-0.113281 1.5,-0.34375 0.40625,-0.238281 0.722656,-0.554687 0.953125,-0.953125 0.238281,-0.394531 0.410156,-0.835938 0.515625,-1.328125 0.101563,-0.5 0.15625,-1.007813 0.15625,-1.53125 v -6.515625 h 2.46875 v 6.515625 c 0,0.875 -0.105469,1.699219 -0.3125,2.46875 -0.210937,0.773437 -0.542969,1.449219 -1,2.03125 -0.449219,0.574219 -1.027344,1.027344 -1.734375,1.359375 -0.710938,0.3359375 -1.554688,0.5 -2.53125,0.5 z m 0,0"
           id="path19" />
      </g>
    </g>
  </g>
  <g
     fill="#000000"
     fill-opacity="1"
     id="g25"
     transform="translate(-22.390096,-9.2947459)">
    <g
       transform="translate(116.56393,22.169746)"
       id="g24">
      <g
         id="g23">
        <path
           d="M 10.890625,-10.609375 H 6.796875 V 0 H 4.34375 V -10.609375 H 0.25 v -2.171875 h 10.640625 z m 0,0"
           id="path22" />
      </g>
    </g>
  </g>
  <g
     fill="#000000"
     fill-opacity="1"
     id="g31"
     transform="translate(-22.390096,-9.2947459)">
    <g
       transform="translate(133.45907,22.169746)"
       id="g30">
      <g
         id="g29">
        <path
           d="M 4.8125,-12.78125 H 7.328125 L 12.03125,0 H 9.46875 L 8.28125,-3.1875 H 3.8125 L 2.640625,0 H 0.09375 Z M 7.828125,-4.9375 6.0625,-10.203125 4.234375,-4.9375 Z m 0,0"
           id="path28" />
      </g>
    </g>
  </g>
  <g
     fill="#000000"
     fill-opacity="1"
     id="g34"
     transform="translate(-22.390096,-9.2947459)">
    <g
       transform="translate(146.26988,22.169746)"
       id="g33">
      <g
         id="g32">
        <path
           d="M 1.328125,0 V -12.78125 H 3.8125 V 0 Z m 0,0"
           id="path31" />
      </g>
    </g>
  </g>
  <g
     transform="translate(-3.3900961,18.705254)"
     id="g57">
    <g
       clip-path="url(#a504400118)"
       id="g56">
      <g
         fill="#000000"
         fill-opacity="1"
         id="g37">
        <g
           transform="translate(0.353936,82.354466)"
           id="g36">
          <g
             id="g35">
            <path
               d="m 43.03125,-61.859375 h 16 c 0.644531,0 1.203125,0.234375 1.671875,0.703125 0.476563,0.46875 0.71875,1.03125 0.71875,1.6875 v 57.078125 c 0,0.65625 -0.242187,1.21875 -0.71875,1.6875 C 60.234375,-0.234375 59.675781,0 59.03125,0 H 45.078125 c -1.53125,0 -2.742187,-0.675781 -3.625,-2.03125 l -14.9375,-22.53125 v 22.171875 c 0,0.65625 -0.242187,1.21875 -0.71875,1.6875 C 25.328125,-0.234375 24.769531,0 24.125,0 h -16 C 7.476562,0 6.921875,-0.234375 6.453125,-0.703125 5.984375,-1.171875 5.75,-1.734375 5.75,-2.390625 V -59.46875 c 0,-0.65625 0.234375,-1.21875 0.703125,-1.6875 0.46875,-0.46875 1.023437,-0.703125 1.671875,-0.703125 h 13.96875 c 1.644531,0 2.851562,0.679687 3.625,2.03125 l 14.9375,24.484375 v -24.125 c 0,-0.65625 0.234375,-1.21875 0.703125,-1.6875 0.46875,-0.46875 1.023437,-0.703125 1.671875,-0.703125 z m 0,0"
               id="path34" />
          </g>
        </g>
      </g>
      <g
         fill="#000000"
         fill-opacity="1"
         id="g40">
        <g
           transform="translate(68.397935,82.354466)"
           id="g39">
          <g
             id="g38">
            <path
               d="M 12.0625,-56.203125 C 17.457031,-60.566406 24.601562,-62.75 33.5,-62.75 c 8.894531,0 16.035156,2.199219 21.421875,6.59375 5.394531,4.386719 8.09375,10.558594 8.09375,18.515625 v 13.78125 c 0,8.074219 -2.667969,14.21875 -8,18.4375 -5.335937,4.210937 -12.511719,6.3125 -21.53125,6.3125 -9.011719,0 -16.183594,-2.101563 -21.515625,-6.3125 -5.324219,-4.21875 -7.984375,-10.363281 -7.984375,-18.4375 v -13.78125 c 0,-8.019531 2.691406,-14.207031 8.078125,-18.5625 z m 16.65625,38.09375 c 1.175781,1.179687 2.765625,1.765625 4.765625,1.765625 2.007813,0 3.601563,-0.585938 4.78125,-1.765625 1.175781,-1.1875 1.765625,-2.984375 1.765625,-5.390625 v -14.859375 c 0,-2.351563 -0.589844,-4.132813 -1.765625,-5.34375 -1.179687,-1.207031 -2.773437,-1.8125 -4.78125,-1.8125 -2,0 -3.589844,0.605469 -4.765625,1.8125 -1.179688,1.210937 -1.765625,2.992187 -1.765625,5.34375 V -23.5 c 0,2.40625 0.585937,4.203125 1.765625,5.390625 z m 0,0"
               id="path37" />
          </g>
        </g>
      </g>
      <g
         fill="#000000"
         fill-opacity="1"
         id="g43">
        <g
           transform="translate(136.26518,82.354466)"
           id="g42">
          <g
             id="g41">
            <path
               d="m 8.125,-61.859375 h 26.34375 c 8.476562,0 15.101562,1.828125 19.875,5.484375 4.78125,3.648438 7.171875,9.039062 7.171875,16.171875 0,7.125 -2.375,12.398437 -7.125,15.8125 -4.742187,3.417969 -11.382813,5.125 -19.921875,5.125 h -5.75 v 16.875 c 0,0.65625 -0.234375,1.21875 -0.703125,1.6875 C 27.546875,-0.234375 26.984375,0 26.328125,0 H 8.125 C 7.476562,0 6.921875,-0.234375 6.453125,-0.703125 5.984375,-1.171875 5.75,-1.734375 5.75,-2.390625 V -59.46875 c 0,-0.65625 0.234375,-1.21875 0.703125,-1.6875 0.46875,-0.46875 1.023437,-0.703125 1.671875,-0.703125 z m 20.15625,16.4375 v 9.8125 h 6.1875 c 1.0625,0 2.003906,-0.394531 2.828125,-1.1875 0.820313,-0.800781 1.234375,-1.9375 1.234375,-3.40625 0,-1.476563 -0.324219,-2.71875 -0.96875,-3.71875 -0.648438,-1 -1.679688,-1.5 -3.09375,-1.5 z m 0,0"
               id="path40" />
          </g>
        </g>
      </g>
      <g
         fill="#000000"
         fill-opacity="1"
         id="g46">
        <g
           transform="translate(201.30463,82.354466)"
           id="g45">
          <g
             id="g44">
            <path
               d="M 26.15625,0 H 8.125 C 7.476562,0 6.921875,-0.234375 6.453125,-0.703125 5.984375,-1.171875 5.75,-1.734375 5.75,-2.390625 V -59.46875 c 0,-0.65625 0.234375,-1.21875 0.703125,-1.6875 0.46875,-0.46875 1.023437,-0.703125 1.671875,-0.703125 h 18.03125 c 0.644531,0 1.203125,0.234375 1.671875,0.703125 0.476563,0.46875 0.71875,1.03125 0.71875,1.6875 v 57.078125 c 0,0.65625 -0.242187,1.21875 -0.71875,1.6875 C 27.359375,-0.234375 26.800781,0 26.15625,0 Z m 0,0"
               id="path43" />
          </g>
        </g>
      </g>
      <g
         fill="#000000"
         fill-opacity="1"
         id="g49">
        <g
           transform="translate(236.47544,82.354466)"
           id="g48">
          <g
             id="g47">
            <path
               d="m 28.1875,-18.109375 h 24.484375 c 0.644531,0 1.203125,0.234375 1.671875,0.703125 0.476562,0.46875 0.71875,1.027344 0.71875,1.671875 v 13.34375 c 0,0.65625 -0.242188,1.21875 -0.71875,1.6875 C 53.875,-0.234375 53.316406,0 52.671875,0 H 8.125 C 7.476562,0 6.921875,-0.234375 6.453125,-0.703125 5.984375,-1.171875 5.75,-1.734375 5.75,-2.390625 V -59.46875 c 0,-0.65625 0.234375,-1.21875 0.703125,-1.6875 0.46875,-0.46875 1.023437,-0.703125 1.671875,-0.703125 h 17.6875 c 0.644531,0 1.203125,0.234375 1.671875,0.703125 0.46875,0.46875 0.703125,1.03125 0.703125,1.6875 z m 0,0"
               id="path46" />
          </g>
        </g>
      </g>
      <g
         fill="#000000"
         fill-opacity="1"
         id="g52">
        <g
           transform="translate(294.62213,82.354466)"
           id="g51">
          <g
             id="g50">
            <path
               d="M 12.0625,-56.203125 C 17.457031,-60.566406 24.601562,-62.75 33.5,-62.75 c 8.894531,0 16.035156,2.199219 21.421875,6.59375 5.394531,4.386719 8.09375,10.558594 8.09375,18.515625 v 13.78125 c 0,8.074219 -2.667969,14.21875 -8,18.4375 -5.335937,4.210937 -12.511719,6.3125 -21.53125,6.3125 -9.011719,0 -16.183594,-2.101563 -21.515625,-6.3125 -5.324219,-4.21875 -7.984375,-10.363281 -7.984375,-18.4375 v -13.78125 c 0,-8.019531 2.691406,-14.207031 8.078125,-18.5625 z m 16.65625,38.09375 c 1.175781,1.179687 2.765625,1.765625 4.765625,1.765625 2.007813,0 3.601563,-0.585938 4.78125,-1.765625 1.175781,-1.1875 1.765625,-2.984375 1.765625,-5.390625 v -14.859375 c 0,-2.351563 -0.589844,-4.132813 -1.765625,-5.34375 -1.179687,-1.207031 -2.773437,-1.8125 -4.78125,-1.8125 -2,0 -3.589844,0.605469 -4.765625,1.8125 -1.179688,1.210937 -1.765625,2.992187 -1.765625,5.34375 V -23.5 c 0,2.40625 0.585937,4.203125 1.765625,5.390625 z m 0,0"
               id="path49" />
          </g>
        </g>
      </g>
      <g
         fill="#000000"
         fill-opacity="1"
         id="g55">
        <g
           transform="translate(362.48939,82.354466)"
           id="g54">
          <g
             id="g53">
            <path
               d="m 5.03125,-61.859375 h 51.796875 c 0.644531,0 1.203125,0.234375 1.671875,0.703125 0.476562,0.46875 0.71875,1.03125 0.71875,1.6875 V -45.25 c 0,0.648438 -0.242188,1.210938 -0.71875,1.6875 -0.46875,0.46875 -1.027344,0.703125 -1.671875,0.703125 H 42.15625 v 40.46875 c 0,0.65625 -0.242188,1.21875 -0.71875,1.6875 C 40.96875,-0.234375 40.410156,0 39.765625,0 H 22.09375 c -0.648438,0 -1.210938,-0.234375 -1.6875,-0.703125 -0.46875,-0.46875 -0.703125,-1.03125 -0.703125,-1.6875 v -40.46875 H 5.03125 c -0.648438,0 -1.203125,-0.234375 -1.671875,-0.703125 C 2.890625,-44.039062 2.65625,-44.601562 2.65625,-45.25 v -14.21875 c 0,-0.65625 0.234375,-1.21875 0.703125,-1.6875 0.46875,-0.46875 1.023437,-0.703125 1.671875,-0.703125 z m 0,0"
               id="path52" />
          </g>
        </g>
      </g>
    </g>
  </g>
  <g
     transform="translate(-0.39009605,106.70525)"
     id="g164">
    <g
       clip-path="url(#9a57567057)"
       id="g163">
      <g
         fill="#000000"
         fill-opacity="1"
         id="g132">
        <g
           transform="translate(0.390096,68.291659)"
           id="g131">
          <g
             id="g130">
            <path
               d="m 36.75,-51.140625 h 13.578125 c 0.4375,0 0.8125,0.164063 1.125,0.484375 0.320313,0.3125 0.484375,0.617188 0.484375,0.90625 0,0.292969 -0.02734,0.539062 -0.07813,0.734375 L 38.125,-2.40625 C 37.6875,-0.800781 36.59375,0 34.84375,0 H 18.1875 c -1.75,0 -2.84375,-0.800781 -3.28125,-2.40625 L 1.171875,-49.015625 C 1.117188,-49.210938 1.09375,-49.457031 1.09375,-49.75 c 0,-0.289062 0.15625,-0.59375 0.46875,-0.90625 0.320312,-0.320312 0.703125,-0.484375 1.140625,-0.484375 h 13.59375 c 1.75,0 2.84375,0.808594 3.28125,2.421875 l 6.9375,27.171875 6.9375,-27.171875 c 0.4375,-1.613281 1.535156,-2.421875 3.296875,-2.421875 z m 0,0"
               id="path129" />
          </g>
        </g>
      </g>
      <g
         fill="#000000"
         fill-opacity="1"
         id="g135">
        <g
           transform="translate(54.153191,68.291659)"
           id="g134">
          <g
             id="g133">
            <path
               d="m 3.4375,-35.0625 c 0,-4.96875 2.054688,-9.007812 6.171875,-12.125 4.113281,-3.113281 9.515625,-4.671875 16.203125,-4.671875 6.695312,0 12.175781,1.632813 16.4375,4.890625 4.269531,3.261719 6.40625,6.667969 6.40625,10.21875 0,0.449219 -0.164062,0.828125 -0.484375,1.140625 -0.3125,0.3125 -0.667969,0.46875 -1.0625,0.46875 H 32.5 c -1.117188,0 -2.136719,-0.410156 -3.0625,-1.234375 -0.929688,-0.832031 -2.167969,-1.25 -3.71875,-1.25 -2.34375,0 -3.515625,0.683594 -3.515625,2.046875 0,0.730469 0.570313,1.339844 1.71875,1.828125 1.144531,0.492188 3.273437,0.929688 6.390625,1.3125 7.257812,0.929688 12.429688,2.621094 15.515625,5.078125 3.09375,2.460937 4.640625,6.1875 4.640625,11.1875 0,4.992187 -2.277344,9.058594 -6.828125,12.203125 -4.554687,3.136719 -10.507813,4.703125 -17.859375,4.703125 -7.355469,0 -13.125,-1.507813 -17.3125,-4.53125 -4.1875,-3.019531 -6.28125,-6.695313 -6.28125,-11.03125 0,-0.4375 0.15625,-0.8125 0.46875,-1.125 0.320312,-0.320313 0.703125,-0.484375 1.140625,-0.484375 h 13.875 c 1.03125,0 2.164063,0.492188 3.40625,1.46875 1.238281,0.96875 2.953125,1.453125 5.140625,1.453125 3.65625,0 5.484375,-0.679687 5.484375,-2.046875 0,-0.875 -0.65625,-1.539062 -1.96875,-2 C 28.421875,-18.03125 25.9375,-18.507812 22.28125,-19 9.71875,-20.644531 3.4375,-26 3.4375,-35.0625 Z m 0,0"
               id="path132" />
          </g>
        </g>
      </g>
      <g
         fill="#000000"
         fill-opacity="1"
         id="g138">
        <g
           transform="translate(107.55105,68.291659)"
           id="g137">
          <g
             id="g136">
            <path
               d="M 22.28125,-31.703125 V -19.4375 c 0,3.949219 1.800781,5.921875 5.40625,5.921875 2.769531,0 4.59375,-1.3125 5.46875,-3.9375 0.25,-0.832031 0.554688,-1.394531 0.921875,-1.6875 0.363281,-0.289063 0.957031,-0.4375 1.78125,-0.4375 h 14.90625 c 0.4375,0 0.8125,0.164063 1.125,0.484375 0.320313,0.3125 0.484375,0.6875 0.484375,1.125 0,4.242188 -1.21875,7.792969 -3.65625,10.65625 -4.480469,5.367188 -11.464844,8.046875 -20.953125,8.046875 -7.460937,0 -13.40625,-1.640625 -17.84375,-4.921875 C 5.492188,-7.476562 3.28125,-12.535156 3.28125,-19.359375 V -31.78125 c 0,-6.664062 2.265625,-11.675781 6.796875,-15.03125 4.53125,-3.363281 10.425781,-5.046875 17.6875,-5.046875 9.488281,0 16.472656,2.679687 20.953125,8.03125 2.4375,2.875 3.65625,6.433594 3.65625,10.671875 0,0.4375 -0.164062,0.8125 -0.484375,1.125 -0.3125,0.3125 -0.6875,0.46875 -1.125,0.46875 h -14.90625 c -0.773437,0 -1.339844,-0.144531 -1.703125,-0.4375 -0.367188,-0.289062 -0.699219,-0.847656 -1,-1.671875 -0.917969,-2.632813 -2.742188,-3.953125 -5.46875,-3.953125 -3.605469,0 -5.40625,1.976562 -5.40625,5.921875 z m 0,0"
               id="path135" />
          </g>
        </g>
      </g>
      <g
         fill="#000000"
         fill-opacity="1"
         id="g141">
        <g
           transform="translate(162.84816,68.291659)"
           id="g140">
          <g
             id="g139">
            <path
               d="m 9.96875,-46.453125 c 4.457031,-3.601563 10.363281,-5.40625 17.71875,-5.40625 7.351562,0 13.253906,1.8125 17.703125,5.4375 4.457031,3.625 6.6875,8.726563 6.6875,15.296875 v 11.40625 c 0,6.667969 -2.203125,11.746094 -6.609375,15.234375 -4.40625,3.480469 -10.335938,5.21875 -17.78125,5.21875 -7.449219,0 -13.382812,-1.738281 -17.796875,-5.21875 C 5.484375,-7.972656 3.28125,-13.050781 3.28125,-19.71875 V -31.125 c 0,-6.613281 2.226562,-11.722656 6.6875,-15.328125 z m 13.765625,31.484375 c 0.976563,0.96875 2.296875,1.453125 3.953125,1.453125 1.65625,0 2.96875,-0.484375 3.9375,-1.453125 0.976562,-0.976562 1.46875,-2.46875 1.46875,-4.46875 v -12.265625 c 0,-1.945313 -0.492188,-3.421875 -1.46875,-4.421875 -0.96875,-1 -2.28125,-1.5 -3.9375,-1.5 -1.65625,0 -2.976562,0.5 -3.953125,1.5 -0.96875,1 -1.453125,2.476562 -1.453125,4.421875 V -19.4375 c 0,2 0.484375,3.492188 1.453125,4.46875 z m 0,0"
               id="path138" />
          </g>
        </g>
      </g>
      <g
         fill="#000000"
         fill-opacity="1"
         id="g144">
        <g
           transform="translate(218.94878,68.291659)"
           id="g143">
          <g
             id="g142">
            <path
               d="m 6.71875,-51.140625 h 21.046875 c 7.101563,0 12.957031,1.765625 17.5625,5.296875 4.601563,3.53125 6.90625,8.464844 6.90625,14.796875 v 10.890625 c 0,6.617188 -2.246094,11.632812 -6.734375,15.046875 C 41.019531,-1.703125 35.128906,0 27.828125,0 H 6.71875 C 6.1875,0 5.722656,-0.191406 5.328125,-0.578125 4.941406,-0.972656 4.75,-1.4375 4.75,-1.96875 v -47.1875 c 0,-0.539062 0.191406,-1.003906 0.578125,-1.390625 0.394531,-0.394531 0.859375,-0.59375 1.390625,-0.59375 z m 16.296875,14.25 V -14.25 h 4.75 c 1.644531,0 2.96875,-0.492188 3.96875,-1.484375 1,-1 1.5,-2.472656 1.5,-4.421875 v -10.890625 c 0,-3.894531 -1.824219,-5.84375 -5.46875,-5.84375 z m 0,0"
               id="path141" />
          </g>
        </g>
      </g>
      <g
         fill="#000000"
         fill-opacity="1"
         id="g147">
        <g
           transform="translate(275.1955,68.291659)"
           id="g146">
          <g
             id="g145">
            <path
               d="m 22.28125,-14.25 h 22.5 c 0.53125,0 0.988281,0.199219 1.375,0.59375 0.394531,0.386719 0.59375,0.851562 0.59375,1.390625 V -1.96875 c 0,0.53125 -0.199219,0.996094 -0.59375,1.390625 C 45.769531,-0.191406 45.3125,0 44.78125,0 H 6.71875 C 6.1875,0 5.722656,-0.191406 5.328125,-0.578125 4.941406,-0.972656 4.75,-1.4375 4.75,-1.96875 v -47.1875 c 0,-0.539062 0.191406,-1.003906 0.578125,-1.390625 0.394531,-0.394531 0.859375,-0.59375 1.390625,-0.59375 H 44.1875 c 0.539062,0 1.003906,0.199219 1.390625,0.59375 0.394531,0.386719 0.59375,0.851563 0.59375,1.390625 v 10.296875 c 0,0.53125 -0.199219,0.996094 -0.59375,1.390625 -0.386719,0.386719 -0.851563,0.578125 -1.390625,0.578125 H 22.28125 v 4.609375 h 20.3125 c 0.53125,0 0.988281,0.195312 1.375,0.578125 0.394531,0.386719 0.59375,0.851563 0.59375,1.390625 v 9.5 c 0,0.53125 -0.199219,0.996094 -0.59375,1.390625 -0.386719,0.386719 -0.84375,0.578125 -1.375,0.578125 h -20.3125 z m 0,0"
               id="path144" />
          </g>
        </g>
      </g>
      <g
         fill="#000000"
         fill-opacity="1"
         id="g150">
        <g
           transform="translate(326.69413,68.291659)"
           id="g149">
          <g
             id="g148" />
        </g>
      </g>
      <g
         fill="#000000"
         fill-opacity="1"
         id="g153">
        <g
           transform="translate(348.60844,68.291659)"
           id="g152">
          <g
             id="g151">
            <path
               d="m 6.71875,-51.140625 h 36.8125 c 0.539062,0 1.003906,0.199219 1.390625,0.59375 0.394531,0.386719 0.59375,0.851563 0.59375,1.390625 v 11.09375 c 0,0.542969 -0.199219,1.011719 -0.59375,1.40625 -0.386719,0.386719 -0.851563,0.578125 -1.390625,0.578125 H 22.640625 v 5.390625 h 19.4375 c 0.53125,0 0.988281,0.199219 1.375,0.59375 0.394531,0.386719 0.59375,0.851562 0.59375,1.390625 v 11.03125 c 0,0.53125 -0.199219,0.996094 -0.59375,1.390625 -0.386719,0.386719 -0.84375,0.578125 -1.375,0.578125 h -19.4375 V -1.96875 c 0,0.53125 -0.199219,0.996094 -0.59375,1.390625 C 21.660156,-0.191406 21.203125,0 20.671875,0 H 6.71875 C 6.1875,0 5.722656,-0.191406 5.328125,-0.578125 4.941406,-0.972656 4.75,-1.4375 4.75,-1.96875 v -47.1875 c 0,-0.539062 0.191406,-1.003906 0.578125,-1.390625 0.394531,-0.394531 0.859375,-0.59375 1.390625,-0.59375 z m 0,0"
               id="path150" />
          </g>
        </g>
      </g>
      <g
         fill="#000000"
         fill-opacity="1"
         id="g156">
        <g
           transform="translate(397.76954,68.291659)"
           id="g155">
          <g
             id="g154">
            <path
               d="m 51.796875,-2.40625 c 0.144531,0.292969 0.21875,0.609375 0.21875,0.953125 0,0.335937 -0.164063,0.664063 -0.484375,0.984375 C 51.21875,-0.15625 50.84375,0 50.40625,0 H 35.421875 C 33.910156,0 32.863281,-0.65625 32.28125,-1.96875 L 26,-15.921875 H 23.015625 V -1.96875 c 0,0.53125 -0.199219,0.996094 -0.59375,1.390625 C 22.035156,-0.191406 21.570312,0 21.03125,0 H 6.71875 C 6.1875,0 5.722656,-0.191406 5.328125,-0.578125 4.941406,-0.972656 4.75,-1.4375 4.75,-1.96875 v -47.1875 c 0,-0.539062 0.191406,-1.003906 0.578125,-1.390625 0.394531,-0.394531 0.859375,-0.59375 1.390625,-0.59375 h 21.625 c 7.007812,0 12.484375,1.574219 16.421875,4.71875 3.945313,3.148437 5.921875,7.652344 5.921875,13.515625 0,5.867188 -2.625,10.480469 -7.875,13.84375 z m -28.78125,-35.140625 v 7.75 h 5.328125 c 1.070312,0 1.898438,-0.351563 2.484375,-1.0625 0.582031,-0.707031 0.875,-1.597656 0.875,-2.671875 0,-1.070312 -0.28125,-2.007812 -0.84375,-2.8125 -0.5625,-0.800781 -1.402344,-1.203125 -2.515625,-1.203125 z m 0,0"
               id="path153" />
          </g>
        </g>
      </g>
      <g
         fill="#000000"
         fill-opacity="1"
         id="g159">
        <g
           transform="translate(452.7014,68.291659)"
           id="g158">
          <g
             id="g157">
            <path
               d="m 9.96875,-46.453125 c 4.457031,-3.601563 10.363281,-5.40625 17.71875,-5.40625 7.351562,0 13.253906,1.8125 17.703125,5.4375 4.457031,3.625 6.6875,8.726563 6.6875,15.296875 v 11.40625 c 0,6.667969 -2.203125,11.746094 -6.609375,15.234375 -4.40625,3.480469 -10.335938,5.21875 -17.78125,5.21875 -7.449219,0 -13.382812,-1.738281 -17.796875,-5.21875 C 5.484375,-7.972656 3.28125,-13.050781 3.28125,-19.71875 V -31.125 c 0,-6.613281 2.226562,-11.722656 6.6875,-15.328125 z m 13.765625,31.484375 c 0.976563,0.96875 2.296875,1.453125 3.953125,1.453125 1.65625,0 2.96875,-0.484375 3.9375,-1.453125 0.976562,-0.976562 1.46875,-2.46875 1.46875,-4.46875 v -12.265625 c 0,-1.945313 -0.492188,-3.421875 -1.46875,-4.421875 -0.96875,-1 -2.28125,-1.5 -3.9375,-1.5 -1.65625,0 -2.976562,0.5 -3.953125,1.5 -0.96875,1 -1.453125,2.476562 -1.453125,4.421875 V -19.4375 c 0,2 0.484375,3.492188 1.453125,4.46875 z m 0,0"
               id="path156" />
          </g>
        </g>
      </g>
      <g
         fill="#000000"
         fill-opacity="1"
         id="g162">
        <g
           transform="translate(508.80203,68.291659)"
           id="g161">
          <g
             id="g160">
            <path
               d="m 52.59375,-2.40625 c 0.144531,0.242188 0.21875,0.542969 0.21875,0.90625 0,0.367188 -0.164062,0.710938 -0.484375,1.03125 C 52.015625,-0.15625 51.640625,0 51.203125,0 H 34.546875 C 33.140625,0 32.144531,-0.5625 31.5625,-1.6875 L 22.640625,-17.609375 V -1.96875 c 0,0.53125 -0.199219,0.996094 -0.59375,1.390625 C 21.660156,-0.191406 21.203125,0 20.671875,0 H 6.71875 C 6.1875,0 5.722656,-0.191406 5.328125,-0.578125 4.941406,-0.972656 4.75,-1.4375 4.75,-1.96875 v -47.1875 c 0,-0.539062 0.191406,-1.003906 0.578125,-1.390625 0.394531,-0.394531 0.859375,-0.59375 1.390625,-0.59375 h 13.953125 c 0.53125,0 0.988281,0.199219 1.375,0.59375 0.394531,0.386719 0.59375,0.851563 0.59375,1.390625 v 14.453125 L 30.90625,-49.53125 c 0.53125,-1.070312 1.503906,-1.609375 2.921875,-1.609375 H 49.96875 c 0.4375,0 0.8125,0.164063 1.125,0.484375 0.320312,0.3125 0.484375,0.652344 0.484375,1.015625 0,0.367187 -0.07422,0.671875 -0.21875,0.921875 l -13.15625,22.0625 z m 0,0"
               id="path159" />
          </g>
        </g>
      </g>
    </g>
  </g>
  <g
     fill="#000000"
     fill-opacity="1"
     id="g167"
     transform="translate(-22.390096,-9.2947459)">
    <g
       transform="translate(195.99368,22.169746)"
       id="g166">
      <g
         id="g165">
        <path
           d="M 3.8125,-8.203125 V 0 H 1.328125 V -12.78125 H 3.3125 l 6.609375,8.421875 v -8.40625 H 12.40625 V 0 h -2.078125 z m 0,0"
           id="path164" />
      </g>
    </g>
  </g>
  <g
     fill="#000000"
     fill-opacity="1"
     id="g170"
     transform="translate(-22.390096,-9.2947459)">
    <g
       transform="translate(210.44183,22.169746)"
       id="g169">
      <g
         id="g168">
        <path
           d="m 6.78125,0.09375 c -0.9375,0 -1.789062,-0.1757812 -2.546875,-0.53125 C 3.472656,-0.800781 2.816406,-1.289062 2.265625,-1.90625 1.722656,-2.53125 1.300781,-3.226562 1,-4 0.707031,-4.78125 0.5625,-5.578125 0.5625,-6.390625 c 0,-0.851563 0.15625,-1.664063 0.46875,-2.4375 0.320312,-0.769531 0.757812,-1.457031 1.3125,-2.0625 0.5625,-0.613281 1.222656,-1.097656 1.984375,-1.453125 0.757813,-0.351562 1.597656,-0.53125 2.515625,-0.53125 0.914062,0 1.753906,0.1875 2.515625,0.5625 0.769531,0.375 1.421875,0.875 1.953125,1.5 0.539062,0.625 0.960938,1.324219 1.265625,2.09375 0.300781,0.761719 0.453125,1.546875 0.453125,2.359375 0,0.84375 -0.15625,1.65625 -0.46875,2.4375 -0.3125,0.773437 -0.75,1.460937 -1.3125,2.0625 -0.554688,0.605469 -1.210938,1.085937 -1.96875,1.4375 -0.761719,0.34375 -1.59375,0.515625 -2.5,0.515625 z M 3.078125,-6.390625 c 0,0.554687 0.082031,1.089844 0.25,1.609375 0.164063,0.511719 0.40625,0.96875 0.71875,1.375 0.320313,0.398438 0.710937,0.714844 1.171875,0.953125 0.46875,0.230469 0.992188,0.34375 1.578125,0.34375 0.601563,0 1.140625,-0.117187 1.609375,-0.359375 0.46875,-0.25 0.859375,-0.582031 1.171875,-1 0.3125,-0.414062 0.546875,-0.875 0.703125,-1.375 0.164062,-0.507812 0.25,-1.023438 0.25,-1.546875 0,-0.550781 -0.08984,-1.082031 -0.265625,-1.59375 C 10.097656,-8.492188 9.851562,-8.945312 9.53125,-9.34375 9.207031,-9.75 8.816406,-10.066406 8.359375,-10.296875 c -0.460937,-0.238281 -0.980469,-0.359375 -1.5625,-0.359375 -0.605469,0 -1.140625,0.125 -1.609375,0.375 -0.460938,0.242188 -0.84375,0.570312 -1.15625,0.984375 -0.3125,0.40625 -0.554688,0.859375 -0.71875,1.359375 -0.15625,0.5 -0.234375,1.015625 -0.234375,1.546875 z m 0,0"
           id="path167" />
      </g>
    </g>
  </g>
  <g
     fill="#000000"
     fill-opacity="1"
     id="g176"
     transform="translate(-22.390096,-9.2947459)">
    <g
       transform="translate(229.80198,22.169746)"
       id="g175">
      <g
         id="g174">
        <path
           d="M 10.890625,-10.609375 H 6.796875 V 0 H 4.34375 V -10.609375 H 0.25 v -2.171875 h 10.640625 z m 0,0"
           id="path173" />
      </g>
    </g>
  </g>
  <g
     fill="#000000"
     fill-opacity="1"
     id="g179"
     transform="translate(-22.390096,-9.2947459)">
    <g
       transform="translate(241.65917,22.169746)"
       id="g178">
      <g
         id="g177">
        <path
           d="M 10.203125,-2.171875 V 0 h -8.875 v -12.78125 h 8.71875 v 2.171875 H 3.8125 v 3.078125 h 5.390625 v 2.015625 H 3.8125 v 3.34375 z m 0,0"
           id="path176" />
      </g>
    </g>
  </g>
  <g
     fill="#000000"
     fill-opacity="1"
     id="g182"
     transform="translate(-22.390096,-9.2947459)">
    <g
       transform="translate(253.19249,22.169746)"
       id="g181">
      <g
         id="g180">
        <path
           d="M 1.328125,0 V -12.78125 H 3.8125 v 10.609375 h 6.515625 V 0 Z m 0,0"
           id="path179" />
      </g>
    </g>
  </g>
  <g
     fill="#000000"
     fill-opacity="1"
     id="g185"
     transform="translate(-22.390096,-9.2947459)">
    <g
       transform="translate(264.41994,22.169746)"
       id="g184">
      <g
         id="g183">
        <path
           d="M 10.203125,-2.171875 V 0 h -8.875 v -12.78125 h 8.71875 v 2.171875 H 3.8125 v 3.078125 h 5.390625 v 2.015625 H 3.8125 v 3.34375 z m 0,0"
           id="path182" />
      </g>
    </g>
  </g>
  <g
     fill="#000000"
     fill-opacity="1"
     id="g188"
     transform="translate(-22.390096,-9.2947459)">
    <g
       transform="translate(275.95326,22.169746)"
       id="g187">
      <g
         id="g186">
        <path
           d="m 11.75,0 v -8.390625 l -3.265625,6.25 H 7.09375 l -3.28125,-6.25 V 0 H 1.328125 V -12.78125 H 4 l 3.78125,7.265625 3.8125,-7.265625 h 2.640625 V 0 Z m 0,0"
           id="path185" />
      </g>
    </g>
  </g>
  <g
     fill="#000000"
     fill-opacity="1"
     id="g191"
     transform="translate(-22.390096,-9.2947459)">
    <g
       transform="translate(292.23666,22.169746)"
       id="g190">
      <g
         id="g189">
        <path
           d="M 10.203125,-2.171875 V 0 h -8.875 v -12.78125 h 8.71875 v 2.171875 H 3.8125 v 3.078125 h 5.390625 v 2.015625 H 3.8125 v 3.34375 z m 0,0"
           id="path188" />
      </g>
    </g>
  </g>
  <g
     fill="#000000"
     fill-opacity="1"
     id="g194"
     transform="translate(-22.390096,-9.2947459)">
    <g
       transform="translate(303.76997,22.169746)"
       id="g193">
      <g
         id="g192">
        <path
           d="M 10.890625,-10.609375 H 6.796875 V 0 H 4.34375 V -10.609375 H 0.25 v -2.171875 h 10.640625 z m 0,0"
           id="path191" />
      </g>
    </g>
  </g>
  <g
     fill="#000000"
     fill-opacity="1"
     id="g197"
     transform="translate(-22.390096,-9.2947459)">
    <g
       transform="translate(315.62717,22.169746)"
       id="g196">
      <g
         id="g195">
        <path
           d="m 1.328125,0 v -12.78125 h 5.65625 c 0.582031,0 1.125,0.121094 1.625,0.359375 0.5,0.242187 0.929687,0.570313 1.296875,0.984375 0.363281,0.40625 0.644531,0.859375 0.84375,1.359375 0.195312,0.5 0.296875,1.015625 0.296875,1.546875 0,0.542969 -0.09375,1.0625 -0.28125,1.5625 -0.179687,0.492188 -0.445313,0.921875 -0.796875,1.296875 -0.34375,0.375 -0.75,0.664063 -1.21875,0.859375 L 11.65625,0 H 8.921875 l -2.625,-4.28125 H 3.8125 V 0 Z M 3.8125,-6.46875 h 3.125 c 0.300781,0 0.570312,-0.085938 0.8125,-0.265625 0.25,-0.1875 0.441406,-0.4375 0.578125,-0.75 0.144531,-0.3125 0.21875,-0.660156 0.21875,-1.046875 0,-0.40625 -0.085937,-0.757812 -0.25,-1.0625 -0.167969,-0.3125 -0.382813,-0.554688 -0.640625,-0.734375 -0.261719,-0.1875 -0.539062,-0.28125 -0.828125,-0.28125 H 3.8125 Z m 0,0"
           id="path194" />
      </g>
    </g>
  </g>
  <g
     fill="#000000"
     fill-opacity="1"
     id="g200"
     transform="translate(-22.390096,-9.2947459)">
    <g
       transform="translate(328.31202,22.169746)"
       id="g199">
      <g
         id="g198">
        <path
           d="M 2.765625,-12.78125 5.921875,-6.765625 9.125,-12.78125 h 2.6875 l -4.65625,8.3125 V 0 H 4.703125 v -4.5 l -4.625,-8.28125 z m 0,0"
           id="path197" />
      </g>
    </g>
  </g>
  <g
     fill="#000000"
     fill-opacity="1"
     id="g203"
     transform="translate(-22.390096,-9.2947459)">
    <g
       transform="translate(417.07238,22.169746)"
       id="g202">
      <g
         id="g201">
        <path
           d="M 0.6875,-2.609375 C 0.84375,-2.503906 1.117188,-2.375 1.515625,-2.21875 1.910156,-2.070312 2.378906,-2 2.921875,-2 3.390625,-2 3.769531,-2.078125 4.0625,-2.234375 4.363281,-2.398438 4.59375,-2.644531 4.75,-2.96875 c 0.164062,-0.320312 0.273438,-0.738281 0.328125,-1.25 0.0625,-0.519531 0.09375,-1.140625 0.09375,-1.859375 V -12.78125 H 7.65625 v 6.5 c 0,0.960938 -0.058594,1.835938 -0.171875,2.625 -0.105469,0.792969 -0.3125,1.480469 -0.625,2.0625 -0.3125,0.574219 -0.789063,1.015625 -1.421875,1.328125 -0.625,0.3085938 -1.460938,0.46875 -2.5,0.46875 C 2.351562,0.203125 1.832031,0.132812 1.375,0 0.925781,-0.132812 0.507812,-0.332031 0.125,-0.59375 Z m 0,0"
           id="path200" />
      </g>
    </g>
  </g>
  <g
     fill="#000000"
     fill-opacity="1"
     id="g206"
     transform="translate(-22.390096,-9.2947459)">
    <g
       transform="translate(426.6265,22.169746)"
       id="g205">
      <g
         id="g204">
        <path
           d="m 6.75,0.09375 c -1.023438,0 -1.890625,-0.171875 -2.609375,-0.515625 -0.710937,-0.34375 -1.28125,-0.8125 -1.71875,-1.40625 C 1.984375,-2.429688 1.660156,-3.113281 1.453125,-3.875 1.253906,-4.632812 1.15625,-5.429688 1.15625,-6.265625 v -6.515625 h 2.484375 v 6.515625 c 0,0.53125 0.046875,1.046875 0.140625,1.546875 0.101562,0.492188 0.273438,0.933594 0.515625,1.328125 0.238281,0.398437 0.554687,0.710937 0.953125,0.9375 0.394531,0.230469 0.890625,0.34375 1.484375,0.34375 0.59375,0 1.09375,-0.113281 1.5,-0.34375 0.40625,-0.238281 0.722656,-0.554687 0.953125,-0.953125 0.238281,-0.394531 0.410156,-0.835938 0.515625,-1.328125 0.101563,-0.5 0.15625,-1.007813 0.15625,-1.53125 v -6.515625 h 2.46875 v 6.515625 c 0,0.875 -0.105469,1.699219 -0.3125,2.46875 -0.210937,0.773437 -0.542969,1.449219 -1,2.03125 -0.449219,0.574219 -1.027344,1.027344 -1.734375,1.359375 -0.710938,0.3359375 -1.554688,0.5 -2.53125,0.5 z m 0,0"
           id="path203" />
      </g>
    </g>
  </g>
  <g
     fill="#000000"
     fill-opacity="1"
     id="g209"
     transform="translate(-22.390096,-9.2947459)">
    <g
       transform="translate(440.84075,22.169746)"
       id="g208">
      <g
         id="g207">
        <path
           d="m 8.953125,-9.4375 c -0.09375,-0.082031 -0.25,-0.191406 -0.46875,-0.328125 -0.21875,-0.144531 -0.492187,-0.285156 -0.8125,-0.421875 -0.3125,-0.132812 -0.65625,-0.25 -1.03125,-0.34375 -0.375,-0.101562 -0.75,-0.15625 -1.125,-0.15625 -0.679687,0 -1.1875,0.125 -1.53125,0.375 -0.34375,0.25 -0.515625,0.605469 -0.515625,1.0625 0,0.34375 0.109375,0.621094 0.328125,0.828125 0.21875,0.199219 0.539063,0.371094 0.96875,0.515625 0.4375,0.148438 0.976563,0.304688 1.625,0.46875 0.84375,0.210938 1.570313,0.460938 2.1875,0.75 0.613281,0.292969 1.085937,0.679688 1.421875,1.15625 0.332031,0.46875 0.5,1.09375 0.5,1.875 0,0.6875 -0.132812,1.277344 -0.390625,1.765625 -0.25,0.480469 -0.601563,0.871094 -1.046875,1.171875 C 8.625,-0.414062 8.125,-0.195312 7.5625,-0.0625 7,0.0703125 6.398438,0.140625 5.765625,0.140625 c -0.636719,0 -1.277344,-0.0625 -1.921875,-0.1875 -0.636719,-0.132813 -1.246094,-0.320313 -1.828125,-0.5625 -0.585937,-0.25 -1.125,-0.550781 -1.625,-0.90625 L 1.5,-3.65625 c 0.101562,0.117188 0.289062,0.261719 0.5625,0.4375 0.28125,0.167969 0.617188,0.339844 1.015625,0.515625 0.394531,0.167969 0.828125,0.3125 1.296875,0.4375 0.46875,0.117187 0.941406,0.171875 1.421875,0.171875 0.664063,0 1.171875,-0.109375 1.515625,-0.328125 0.351562,-0.226563 0.53125,-0.554687 0.53125,-0.984375 0,-0.382812 -0.140625,-0.679688 -0.421875,-0.890625 C 7.148438,-4.515625 6.769531,-4.703125 6.28125,-4.859375 5.789062,-5.023438 5.207031,-5.207031 4.53125,-5.40625 3.726562,-5.625 3.054688,-5.875 2.515625,-6.15625 1.972656,-6.445312 1.570312,-6.804688 1.3125,-7.234375 c -0.261719,-0.4375 -0.390625,-0.976563 -0.390625,-1.625 0,-0.875 0.203125,-1.609375 0.609375,-2.203125 0.414062,-0.59375 0.976562,-1.039062 1.6875,-1.34375 0.707031,-0.3125 1.492188,-0.46875 2.359375,-0.46875 0.601563,0 1.171875,0.07031 1.703125,0.203125 0.53125,0.136719 1.03125,0.3125 1.5,0.53125 0.46875,0.210937 0.890625,0.4375 1.265625,0.6875 z m 0,0"
           id="path206" />
      </g>
    </g>
  </g>
  <g
     fill="#000000"
     fill-opacity="1"
     id="g212"
     transform="translate(-22.390096,-9.2947459)">
    <g
       transform="translate(452.58999,22.169746)"
       id="g211">
      <g
         id="g210">
        <path
           d="M 10.890625,-10.609375 H 6.796875 V 0 H 4.34375 V -10.609375 H 0.25 v -2.171875 h 10.640625 z m 0,0"
           id="path209" />
      </g>
    </g>
  </g>
  <g
     fill="#000000"
     fill-opacity="1"
     id="g218"
     transform="translate(-22.390096,-9.2947459)">
    <g
       transform="translate(469.48513,22.169746)"
       id="g217">
      <g
         id="g216">
        <path
           d="m 0.5625,-6.484375 c 0,-0.78125 0.140625,-1.546875 0.421875,-2.296875 0.28125,-0.75 0.691406,-1.429688 1.234375,-2.046875 0.539062,-0.613281 1.195312,-1.101563 1.96875,-1.46875 0.78125,-0.375 1.671875,-0.5625 2.671875,-0.5625 1.175781,0 2.191406,0.261719 3.046875,0.78125 0.863281,0.523437 1.503906,1.195313 1.921875,2.015625 L 9.921875,-8.75 C 9.703125,-9.226562 9.414062,-9.609375 9.0625,-9.890625 8.71875,-10.171875 8.347656,-10.367188 7.953125,-10.484375 7.554688,-10.597656 7.164062,-10.65625 6.78125,-10.65625 c -0.625,0 -1.167969,0.125 -1.625,0.375 -0.460938,0.25 -0.84375,0.585938 -1.15625,1 -0.3125,0.40625 -0.546875,0.867188 -0.703125,1.375 -0.148437,0.5 -0.21875,1 -0.21875,1.5 0,0.5625 0.085937,1.105469 0.265625,1.625 0.1875,0.523438 0.441406,0.984375 0.765625,1.390625 0.332031,0.398437 0.726563,0.714844 1.1875,0.953125 0.46875,0.230469 0.976563,0.34375 1.53125,0.34375 0.394531,0 0.796875,-0.0625 1.203125,-0.1875 0.40625,-0.132812 0.78125,-0.34375 1.125,-0.625 0.351562,-0.289062 0.625,-0.664062 0.8125,-1.125 L 12,-2.859375 c -0.25,0.636719 -0.664062,1.179687 -1.234375,1.625 -0.5625,0.4375 -1.199219,0.773437 -1.90625,1 -0.710937,0.23046875 -1.414063,0.34375 -2.109375,0.34375 -0.917969,0 -1.757812,-0.1875 -2.515625,-0.5625 C 3.484375,-0.835938 2.832031,-1.34375 2.28125,-1.96875 1.738281,-2.601562 1.316406,-3.3125 1.015625,-4.09375 0.710938,-4.882812 0.5625,-5.679688 0.5625,-6.484375 Z m 0,0"
           id="path215" />
      </g>
    </g>
  </g>
  <g
     fill="#000000"
     fill-opacity="1"
     id="g221"
     transform="translate(-22.390096,-9.2947459)">
    <g
       transform="translate(482.54784,22.169746)"
       id="g220">
      <g
         id="g219">
        <path
           d="m 6.78125,0.09375 c -0.9375,0 -1.789062,-0.1757812 -2.546875,-0.53125 C 3.472656,-0.800781 2.816406,-1.289062 2.265625,-1.90625 1.722656,-2.53125 1.300781,-3.226562 1,-4 0.707031,-4.78125 0.5625,-5.578125 0.5625,-6.390625 c 0,-0.851563 0.15625,-1.664063 0.46875,-2.4375 0.320312,-0.769531 0.757812,-1.457031 1.3125,-2.0625 0.5625,-0.613281 1.222656,-1.097656 1.984375,-1.453125 0.757813,-0.351562 1.597656,-0.53125 2.515625,-0.53125 0.914062,0 1.753906,0.1875 2.515625,0.5625 0.769531,0.375 1.421875,0.875 1.953125,1.5 0.539062,0.625 0.960938,1.324219 1.265625,2.09375 0.300781,0.761719 0.453125,1.546875 0.453125,2.359375 0,0.84375 -0.15625,1.65625 -0.46875,2.4375 -0.3125,0.773437 -0.75,1.460937 -1.3125,2.0625 -0.554688,0.605469 -1.210938,1.085937 -1.96875,1.4375 -0.761719,0.34375 -1.59375,0.515625 -2.5,0.515625 z M 3.078125,-6.390625 c 0,0.554687 0.082031,1.089844 0.25,1.609375 0.164063,0.511719 0.40625,0.96875 0.71875,1.375 0.320313,0.398438 0.710937,0.714844 1.171875,0.953125 0.46875,0.230469 0.992188,0.34375 1.578125,0.34375 0.601563,0 1.140625,-0.117187 1.609375,-0.359375 0.46875,-0.25 0.859375,-0.582031 1.171875,-1 0.3125,-0.414062 0.546875,-0.875 0.703125,-1.375 0.164062,-0.507812 0.25,-1.023438 0.25,-1.546875 0,-0.550781 -0.08984,-1.082031 -0.265625,-1.59375 C 10.097656,-8.492188 9.851562,-8.945312 9.53125,-9.34375 9.207031,-9.75 8.816406,-10.066406 8.359375,-10.296875 c -0.460937,-0.238281 -0.980469,-0.359375 -1.5625,-0.359375 -0.605469,0 -1.140625,0.125 -1.609375,0.375 -0.460938,0.242188 -0.84375,0.570312 -1.15625,0.984375 -0.3125,0.40625 -0.554688,0.859375 -0.71875,1.359375 -0.15625,0.5 -0.234375,1.015625 -0.234375,1.546875 z m 0,0"
           id="path218" />
      </g>
    </g>
  </g>
  <g
     fill="#000000"
     fill-opacity="1"
     id="g224"
     transform="translate(-22.390096,-9.2947459)">
    <g
       transform="translate(496.87004,22.169746)"
       id="g223">
      <g
         id="g222">
        <path
           d="M 1.328125,0 V -12.78125 H 5.96875 c 1.394531,0 2.5625,0.289062 3.5,0.859375 0.9375,0.574219 1.640625,1.34375 2.109375,2.3125 0.46875,0.960937 0.703125,2.027344 0.703125,3.203125 0,1.292969 -0.261719,2.421875 -0.78125,3.390625 C 10.988281,-2.054688 10.257812,-1.3125 9.3125,-0.78125 8.375,-0.257812 7.257812,0 5.96875,0 Z M 9.78125,-6.40625 c 0,-0.832031 -0.152344,-1.5625 -0.453125,-2.1875 -0.304687,-0.632812 -0.734375,-1.128906 -1.296875,-1.484375 -0.5625,-0.351563 -1.25,-0.53125 -2.0625,-0.53125 H 3.8125 v 8.4375 h 2.15625 c 0.820312,0 1.515625,-0.179687 2.078125,-0.546875 0.5625,-0.375 0.988281,-0.878906 1.28125,-1.515625 C 9.628906,-4.878906 9.78125,-5.601562 9.78125,-6.40625 Z m 0,0"
           id="path221" />
      </g>
    </g>
  </g>
  <g
     fill="#000000"
     fill-opacity="1"
     id="g227"
     transform="translate(-22.390096,-9.2947459)">
    <g
       transform="translate(510.47252,22.169746)"
       id="g226">
      <g
         id="g225">
        <path
           d="M 10.203125,-2.171875 V 0 h -8.875 v -12.78125 h 8.71875 v 2.171875 H 3.8125 v 3.078125 h 5.390625 v 2.015625 H 3.8125 v 3.34375 z m 0,0"
           id="path224" />
      </g>
    </g>
  </g>
</svg>
