<?xml version="1.0" encoding="UTF-8" standalone="no"?>
<svg
   width="829"
   zoomAndPan="magnify"
   viewBox="0 0 621.75 266.999984"
   height="356"
   preserveAspectRatio="xMidYMid meet"
   version="1.0"
   id="svg227"
   sodipodi:docname="letterpress-hcDark.svg"
   inkscape:version="1.4.3 (0d15f75042, 2025-12-25)"
   xmlns:inkscape="http://www.inkscape.org/namespaces/inkscape"
   xmlns:sodipodi="http://sodipodi.sourceforge.net/DTD/sodipodi-0.dtd"
   xmlns="http://www.w3.org/2000/svg"
   xmlns:svg="http://www.w3.org/2000/svg">
  <sodipodi:namedview
     id="namedview227"
     pagecolor="#ffffff"
     bordercolor="#000000"
     borderopacity="0.25"
     inkscape:showpageshadow="2"
     inkscape:pageopacity="0.0"
     inkscape:pagecheckerboard="0"
     inkscape:deskcolor="#d1d1d1"
     inkscape:zoom="1.6586248"
     inkscape:cx="414.50001"
     inkscape:cy="177.85819"
     inkscape:window-width="1920"
     inkscape:window-height="1017"
     inkscape:window-x="0"
     inkscape:window-y="0"
     inkscape:window-maximized="1"
     inkscape:current-layer="svg227"
     inkscape:export-bgcolor="#00000000" />
  <defs
     id="defs2">
    <g
       id="g1" />
    <clipPath
       id="648394208b">
      <rect
         x="0"
         width="427"
         y="0"
         height="111"
         id="rect1" />
    </clipPath>
    <clipPath
       id="de9c90b87e">
      <rect
         x="0"
         width="564"
         y="0"
         height="92"
         id="rect2" />
    </clipPath>
  </defs>
  <g
     fill="#ffffff"
     fill-opacity="1"
     id="g4">
    <g
       transform="translate(22.390096, 22.169746)"
       id="g3">
      <g
         id="g2">
        <path
           d="M 5.703125 -12.75 L 8.015625 -12.75 L 9.46875 -8.515625 L 10.9375 -12.75 L 13.234375 -12.75 L 11.03125 -6.9375 L 12.65625 -2.859375 L 16.265625 -12.78125 L 18.96875 -12.78125 L 13.859375 0 L 11.71875 0 L 9.46875 -5.359375 L 7.234375 0 L 5.09375 0 L 0 -12.78125 L 2.65625 -12.78125 L 6.296875 -2.859375 L 7.890625 -6.9375 Z M 5.703125 -12.75 "
           id="path2" />
      </g>
    </g>
  </g>
  <g
     fill="#ffffff"
     fill-opacity="1"
     id="g7">
    <g
       transform="translate(42.056126, 22.169746)"
       id="g6">
      <g
         id="g5">
        <path
           d="M 12.078125 -12.78125 L 12.078125 0 L 9.609375 0 L 9.609375 -5.453125 L 3.8125 -5.453125 L 3.8125 0 L 1.328125 0 L 1.328125 -12.78125 L 3.8125 -12.78125 L 3.8125 -7.609375 L 9.609375 -7.609375 L 9.609375 -12.78125 Z M 12.078125 -12.78125 "
           id="path4" />
      </g>
    </g>
  </g>
  <g
     fill="#ffffff"
     fill-opacity="1"
     id="g10">
    <g
       transform="translate(56.180397, 22.169746)"
       id="g9">
      <g
         id="g8">
        <path
           d="M 1.328125 0 L 1.328125 -12.78125 L 3.8125 -12.78125 L 3.8125 0 Z M 1.328125 0 "
           id="path7" />
      </g>
    </g>
  </g>
  <g
     fill="#ffffff"
     fill-opacity="1"
     id="g13">
    <g
       transform="translate(62.04602, 22.169746)"
       id="g12">
      <g
         id="g11">
        <path
           d="M 10.890625 -10.609375 L 6.796875 -10.609375 L 6.796875 0 L 4.34375 0 L 4.34375 -10.609375 L 0.25 -10.609375 L 0.25 -12.78125 L 10.890625 -12.78125 Z M 10.890625 -10.609375 "
           id="path10" />
      </g>
    </g>
  </g>
  <g
     fill="#ffffff"
     fill-opacity="1"
     id="g16">
    <g
       transform="translate(73.903213, 22.169746)"
       id="g15">
      <g
         id="g14">
        <path
           d="M 12.078125 -12.78125 L 12.078125 0 L 9.609375 0 L 9.609375 -5.453125 L 3.8125 -5.453125 L 3.8125 0 L 1.328125 0 L 1.328125 -12.78125 L 3.8125 -12.78125 L 3.8125 -7.609375 L 9.609375 -7.609375 L 9.609375 -12.78125 Z M 12.078125 -12.78125 "
           id="path13" />
      </g>
    </g>
  </g>
  <g
     fill="#ffffff"
     fill-opacity="1"
     id="g19">
    <g
       transform="translate(88.027484, 22.169746)"
       id="g18">
      <g
         id="g17">
        <path
           d="M 6.78125 0.09375 C 5.84375 0.09375 4.992188 -0.0820312 4.234375 -0.4375 C 3.472656 -0.800781 2.816406 -1.289062 2.265625 -1.90625 C 1.722656 -2.53125 1.300781 -3.226562 1 -4 C 0.707031 -4.78125 0.5625 -5.578125 0.5625 -6.390625 C 0.5625 -7.242188 0.71875 -8.054688 1.03125 -8.828125 C 1.351562 -9.597656 1.789062 -10.285156 2.34375 -10.890625 C 2.90625 -11.503906 3.566406 -11.988281 4.328125 -12.34375 C 5.085938 -12.695312 5.925781 -12.875 6.84375 -12.875 C 7.757812 -12.875 8.597656 -12.6875 9.359375 -12.3125 C 10.128906 -11.9375 10.78125 -11.4375 11.3125 -10.8125 C 11.851562 -10.1875 12.273438 -9.488281 12.578125 -8.71875 C 12.878906 -7.957031 13.03125 -7.171875 13.03125 -6.359375 C 13.03125 -5.515625 12.875 -4.703125 12.5625 -3.921875 C 12.25 -3.148438 11.8125 -2.460938 11.25 -1.859375 C 10.695312 -1.253906 10.039062 -0.773438 9.28125 -0.421875 C 8.519531 -0.078125 7.6875 0.09375 6.78125 0.09375 Z M 3.078125 -6.390625 C 3.078125 -5.835938 3.160156 -5.300781 3.328125 -4.78125 C 3.492188 -4.269531 3.734375 -3.8125 4.046875 -3.40625 C 4.367188 -3.007812 4.757812 -2.691406 5.21875 -2.453125 C 5.6875 -2.222656 6.210938 -2.109375 6.796875 -2.109375 C 7.398438 -2.109375 7.9375 -2.226562 8.40625 -2.46875 C 8.875 -2.71875 9.265625 -3.050781 9.578125 -3.46875 C 9.890625 -3.882812 10.125 -4.34375 10.28125 -4.84375 C 10.445312 -5.351562 10.53125 -5.867188 10.53125 -6.390625 C 10.53125 -6.941406 10.441406 -7.472656 10.265625 -7.984375 C 10.097656 -8.492188 9.851562 -8.945312 9.53125 -9.34375 C 9.207031 -9.75 8.816406 -10.066406 8.359375 -10.296875 C 7.898438 -10.535156 7.378906 -10.65625 6.796875 -10.65625 C 6.191406 -10.65625 5.65625 -10.53125 5.1875 -10.28125 C 4.726562 -10.039062 4.34375 -9.710938 4.03125 -9.296875 C 3.71875 -8.890625 3.476562 -8.4375 3.3125 -7.9375 C 3.15625 -7.4375 3.078125 -6.921875 3.078125 -6.390625 Z M 3.078125 -6.390625 "
           id="path16" />
      </g>
    </g>
  </g>
  <g
     fill="#ffffff"
     fill-opacity="1"
     id="g22">
    <g
       transform="translate(102.349682, 22.169746)"
       id="g21">
      <g
         id="g20">
        <path
           d="M 6.75 0.09375 C 5.726562 0.09375 4.859375 -0.078125 4.140625 -0.421875 C 3.429688 -0.765625 2.859375 -1.234375 2.421875 -1.828125 C 1.984375 -2.429688 1.660156 -3.113281 1.453125 -3.875 C 1.253906 -4.632812 1.15625 -5.429688 1.15625 -6.265625 L 1.15625 -12.78125 L 3.640625 -12.78125 L 3.640625 -6.265625 C 3.640625 -5.734375 3.6875 -5.21875 3.78125 -4.71875 C 3.882812 -4.226562 4.054688 -3.785156 4.296875 -3.390625 C 4.535156 -2.992188 4.851562 -2.679688 5.25 -2.453125 C 5.644531 -2.222656 6.140625 -2.109375 6.734375 -2.109375 C 7.328125 -2.109375 7.828125 -2.222656 8.234375 -2.453125 C 8.640625 -2.691406 8.957031 -3.007812 9.1875 -3.40625 C 9.425781 -3.800781 9.597656 -4.242188 9.703125 -4.734375 C 9.804688 -5.234375 9.859375 -5.742188 9.859375 -6.265625 L 9.859375 -12.78125 L 12.328125 -12.78125 L 12.328125 -6.265625 C 12.328125 -5.390625 12.222656 -4.566406 12.015625 -3.796875 C 11.804688 -3.023438 11.472656 -2.347656 11.015625 -1.765625 C 10.566406 -1.191406 9.988281 -0.738281 9.28125 -0.40625 C 8.570312 -0.0703125 7.726562 0.09375 6.75 0.09375 Z M 6.75 0.09375 "
           id="path19" />
      </g>
    </g>
  </g>
  <g
     fill="#ffffff"
     fill-opacity="1"
     id="g25">
    <g
       transform="translate(116.563926, 22.169746)"
       id="g24">
      <g
         id="g23">
        <path
           d="M 10.890625 -10.609375 L 6.796875 -10.609375 L 6.796875 0 L 4.34375 0 L 4.34375 -10.609375 L 0.25 -10.609375 L 0.25 -12.78125 L 10.890625 -12.78125 Z M 10.890625 -10.609375 "
           id="path22" />
      </g>
    </g>
  </g>
  <g
     fill="#ffffff"
     fill-opacity="1"
     id="g28">
    <g
       transform="translate(128.421119, 22.169746)"
       id="g27">
      <g
         id="g26" />
    </g>
  </g>
  <g
     fill="#ffffff"
     fill-opacity="1"
     id="g31">
    <g
       transform="translate(133.459071, 22.169746)"
       id="g30">
      <g
         id="g29">
        <path
           d="M 4.8125 -12.78125 L 7.328125 -12.78125 L 12.03125 0 L 9.46875 0 L 8.28125 -3.1875 L 3.8125 -3.1875 L 2.640625 0 L 0.09375 0 Z M 7.828125 -4.9375 L 6.0625 -10.203125 L 4.234375 -4.9375 Z M 7.828125 -4.9375 "
           id="path28" />
      </g>
    </g>
  </g>
  <g
     fill="#ffffff"
     fill-opacity="1"
     id="g34">
    <g
       transform="translate(146.269883, 22.169746)"
       id="g33">
      <g
         id="g32">
        <path
           d="M 1.328125 0 L 1.328125 -12.78125 L 3.8125 -12.78125 L 3.8125 0 Z M 1.328125 0 "
           id="path31" />
      </g>
    </g>
  </g>
  <g
     transform="matrix(1, 0, 0, 1, 19, 28)"
     id="g57">
    <g
       clip-path="url(#648394208b)"
       id="g56">
      <g
         fill="#ffffff"
         fill-opacity="1"
         id="g37">
        <g
           transform="translate(0.353936, 82.354466)"
           id="g36">
          <g
             id="g35">
            <path
               d="M 43.03125 -61.859375 L 59.03125 -61.859375 C 59.675781 -61.859375 60.234375 -61.625 60.703125 -61.15625 C 61.179688 -60.6875 61.421875 -60.125 61.421875 -59.46875 L 61.421875 -2.390625 C 61.421875 -1.734375 61.179688 -1.171875 60.703125 -0.703125 C 60.234375 -0.234375 59.675781 0 59.03125 0 L 45.078125 0 C 43.546875 0 42.335938 -0.675781 41.453125 -2.03125 L 26.515625 -24.5625 L 26.515625 -2.390625 C 26.515625 -1.734375 26.273438 -1.171875 25.796875 -0.703125 C 25.328125 -0.234375 24.769531 0 24.125 0 L 8.125 0 C 7.476562 0 6.921875 -0.234375 6.453125 -0.703125 C 5.984375 -1.171875 5.75 -1.734375 5.75 -2.390625 L 5.75 -59.46875 C 5.75 -60.125 5.984375 -60.6875 6.453125 -61.15625 C 6.921875 -61.625 7.476562 -61.859375 8.125 -61.859375 L 22.09375 -61.859375 C 23.738281 -61.859375 24.945312 -61.179688 25.71875 -59.828125 L 40.65625 -35.34375 L 40.65625 -59.46875 C 40.65625 -60.125 40.890625 -60.6875 41.359375 -61.15625 C 41.828125 -61.625 42.382812 -61.859375 43.03125 -61.859375 Z M 43.03125 -61.859375 "
               id="path34" />
          </g>
        </g>
      </g>
      <g
         fill="#ffffff"
         fill-opacity="1"
         id="g40">
        <g
           transform="translate(68.397935, 82.354466)"
           id="g39">
          <g
             id="g38">
            <path
               d="M 12.0625 -56.203125 C 17.457031 -60.566406 24.601562 -62.75 33.5 -62.75 C 42.394531 -62.75 49.535156 -60.550781 54.921875 -56.15625 C 60.316406 -51.769531 63.015625 -45.597656 63.015625 -37.640625 L 63.015625 -23.859375 C 63.015625 -15.785156 60.347656 -9.640625 55.015625 -5.421875 C 49.679688 -1.210938 42.503906 0.890625 33.484375 0.890625 C 24.472656 0.890625 17.300781 -1.210938 11.96875 -5.421875 C 6.644531 -9.640625 3.984375 -15.785156 3.984375 -23.859375 L 3.984375 -37.640625 C 3.984375 -45.660156 6.675781 -51.847656 12.0625 -56.203125 Z M 28.71875 -18.109375 C 29.894531 -16.929688 31.484375 -16.34375 33.484375 -16.34375 C 35.492188 -16.34375 37.085938 -16.929688 38.265625 -18.109375 C 39.441406 -19.296875 40.03125 -21.09375 40.03125 -23.5 L 40.03125 -38.359375 C 40.03125 -40.710938 39.441406 -42.492188 38.265625 -43.703125 C 37.085938 -44.910156 35.492188 -45.515625 33.484375 -45.515625 C 31.484375 -45.515625 29.894531 -44.910156 28.71875 -43.703125 C 27.539062 -42.492188 26.953125 -40.710938 26.953125 -38.359375 L 26.953125 -23.5 C 26.953125 -21.09375 27.539062 -19.296875 28.71875 -18.109375 Z M 28.71875 -18.109375 "
               id="path37" />
          </g>
        </g>
      </g>
      <g
         fill="#ffffff"
         fill-opacity="1"
         id="g43">
        <g
           transform="translate(136.265183, 82.354466)"
           id="g42">
          <g
             id="g41">
            <path
               d="M 8.125 -61.859375 L 34.46875 -61.859375 C 42.945312 -61.859375 49.570312 -60.03125 54.34375 -56.375 C 59.125 -52.726562 61.515625 -47.335938 61.515625 -40.203125 C 61.515625 -33.078125 59.140625 -27.804688 54.390625 -24.390625 C 49.648438 -20.972656 43.007812 -19.265625 34.46875 -19.265625 L 28.71875 -19.265625 L 28.71875 -2.390625 C 28.71875 -1.734375 28.484375 -1.171875 28.015625 -0.703125 C 27.546875 -0.234375 26.984375 0 26.328125 0 L 8.125 0 C 7.476562 0 6.921875 -0.234375 6.453125 -0.703125 C 5.984375 -1.171875 5.75 -1.734375 5.75 -2.390625 L 5.75 -59.46875 C 5.75 -60.125 5.984375 -60.6875 6.453125 -61.15625 C 6.921875 -61.625 7.476562 -61.859375 8.125 -61.859375 Z M 28.28125 -45.421875 L 28.28125 -35.609375 L 34.46875 -35.609375 C 35.53125 -35.609375 36.472656 -36.003906 37.296875 -36.796875 C 38.117188 -37.597656 38.53125 -38.734375 38.53125 -40.203125 C 38.53125 -41.679688 38.207031 -42.921875 37.5625 -43.921875 C 36.914062 -44.921875 35.882812 -45.421875 34.46875 -45.421875 Z M 28.28125 -45.421875 "
               id="path40" />
          </g>
        </g>
      </g>
      <g
         fill="#ffffff"
         fill-opacity="1"
         id="g46">
        <g
           transform="translate(201.304631, 82.354466)"
           id="g45">
          <g
             id="g44">
            <path
               d="M 26.15625 0 L 8.125 0 C 7.476562 0 6.921875 -0.234375 6.453125 -0.703125 C 5.984375 -1.171875 5.75 -1.734375 5.75 -2.390625 L 5.75 -59.46875 C 5.75 -60.125 5.984375 -60.6875 6.453125 -61.15625 C 6.921875 -61.625 7.476562 -61.859375 8.125 -61.859375 L 26.15625 -61.859375 C 26.800781 -61.859375 27.359375 -61.625 27.828125 -61.15625 C 28.304688 -60.6875 28.546875 -60.125 28.546875 -59.46875 L 28.546875 -2.390625 C 28.546875 -1.734375 28.304688 -1.171875 27.828125 -0.703125 C 27.359375 -0.234375 26.800781 0 26.15625 0 Z M 26.15625 0 "
               id="path43" />
          </g>
        </g>
      </g>
      <g
         fill="#ffffff"
         fill-opacity="1"
         id="g49">
        <g
           transform="translate(236.475443, 82.354466)"
           id="g48">
          <g
             id="g47">
            <path
               d="M 28.1875 -18.109375 L 52.671875 -18.109375 C 53.316406 -18.109375 53.875 -17.875 54.34375 -17.40625 C 54.820312 -16.9375 55.0625 -16.378906 55.0625 -15.734375 L 55.0625 -2.390625 C 55.0625 -1.734375 54.820312 -1.171875 54.34375 -0.703125 C 53.875 -0.234375 53.316406 0 52.671875 0 L 8.125 0 C 7.476562 0 6.921875 -0.234375 6.453125 -0.703125 C 5.984375 -1.171875 5.75 -1.734375 5.75 -2.390625 L 5.75 -59.46875 C 5.75 -60.125 5.984375 -60.6875 6.453125 -61.15625 C 6.921875 -61.625 7.476562 -61.859375 8.125 -61.859375 L 25.8125 -61.859375 C 26.457031 -61.859375 27.015625 -61.625 27.484375 -61.15625 C 27.953125 -60.6875 28.1875 -60.125 28.1875 -59.46875 Z M 28.1875 -18.109375 "
               id="path46" />
          </g>
        </g>
      </g>
      <g
         fill="#ffffff"
         fill-opacity="1"
         id="g52">
        <g
           transform="translate(294.622126, 82.354466)"
           id="g51">
          <g
             id="g50">
            <path
               d="M 12.0625 -56.203125 C 17.457031 -60.566406 24.601562 -62.75 33.5 -62.75 C 42.394531 -62.75 49.535156 -60.550781 54.921875 -56.15625 C 60.316406 -51.769531 63.015625 -45.597656 63.015625 -37.640625 L 63.015625 -23.859375 C 63.015625 -15.785156 60.347656 -9.640625 55.015625 -5.421875 C 49.679688 -1.210938 42.503906 0.890625 33.484375 0.890625 C 24.472656 0.890625 17.300781 -1.210938 11.96875 -5.421875 C 6.644531 -9.640625 3.984375 -15.785156 3.984375 -23.859375 L 3.984375 -37.640625 C 3.984375 -45.660156 6.675781 -51.847656 12.0625 -56.203125 Z M 28.71875 -18.109375 C 29.894531 -16.929688 31.484375 -16.34375 33.484375 -16.34375 C 35.492188 -16.34375 37.085938 -16.929688 38.265625 -18.109375 C 39.441406 -19.296875 40.03125 -21.09375 40.03125 -23.5 L 40.03125 -38.359375 C 40.03125 -40.710938 39.441406 -42.492188 38.265625 -43.703125 C 37.085938 -44.910156 35.492188 -45.515625 33.484375 -45.515625 C 31.484375 -45.515625 29.894531 -44.910156 28.71875 -43.703125 C 27.539062 -42.492188 26.953125 -40.710938 26.953125 -38.359375 L 26.953125 -23.5 C 26.953125 -21.09375 27.539062 -19.296875 28.71875 -18.109375 Z M 28.71875 -18.109375 "
               id="path49" />
          </g>
        </g>
      </g>
      <g
         fill="#ffffff"
         fill-opacity="1"
         id="g55">
        <g
           transform="translate(362.48939, 82.354466)"
           id="g54">
          <g
             id="g53">
            <path
               d="M 5.03125 -61.859375 L 56.828125 -61.859375 C 57.472656 -61.859375 58.03125 -61.625 58.5 -61.15625 C 58.976562 -60.6875 59.21875 -60.125 59.21875 -59.46875 L 59.21875 -45.25 C 59.21875 -44.601562 58.976562 -44.039062 58.5 -43.5625 C 58.03125 -43.09375 57.472656 -42.859375 56.828125 -42.859375 L 42.15625 -42.859375 L 42.15625 -2.390625 C 42.15625 -1.734375 41.914062 -1.171875 41.4375 -0.703125 C 40.96875 -0.234375 40.410156 0 39.765625 0 L 22.09375 0 C 21.445312 0 20.882812 -0.234375 20.40625 -0.703125 C 19.9375 -1.171875 19.703125 -1.734375 19.703125 -2.390625 L 19.703125 -42.859375 L 5.03125 -42.859375 C 4.382812 -42.859375 3.828125 -43.09375 3.359375 -43.5625 C 2.890625 -44.039062 2.65625 -44.601562 2.65625 -45.25 L 2.65625 -59.46875 C 2.65625 -60.125 2.890625 -60.6875 3.359375 -61.15625 C 3.828125 -61.625 4.382812 -61.859375 5.03125 -61.859375 Z M 5.03125 -61.859375 "
               id="path52" />
          </g>
        </g>
      </g>
    </g>
  </g>
  <g
     fill="#ffffff"
     fill-opacity="1"
     id="g96">
    <g
       transform="translate(292.670409, 257.482438)"
       id="g95">
      <g
         id="g94" />
    </g>
  </g>
  <g
     fill="#ffffff"
     fill-opacity="1"
     id="g105">
    <g
       transform="translate(319.191658, 257.482438)"
       id="g104">
      <g
         id="g103" />
    </g>
  </g>
  <g
     transform="matrix(1, 0, 0, 1, 22, 116)"
     id="g164">
    <g
       clip-path="url(#de9c90b87e)"
       id="g163">
      <g
         fill="#ffffff"
         fill-opacity="1"
         id="g132">
        <g
           transform="translate(0.390096, 68.291659)"
           id="g131">
          <g
             id="g130">
            <path
               d="M 36.75 -51.140625 L 50.328125 -51.140625 C 50.765625 -51.140625 51.140625 -50.976562 51.453125 -50.65625 C 51.773438 -50.34375 51.9375 -50.039062 51.9375 -49.75 C 51.9375 -49.457031 51.910156 -49.210938 51.859375 -49.015625 L 38.125 -2.40625 C 37.6875 -0.800781 36.59375 0 34.84375 0 L 18.1875 0 C 16.4375 0 15.34375 -0.800781 14.90625 -2.40625 L 1.171875 -49.015625 C 1.117188 -49.210938 1.09375 -49.457031 1.09375 -49.75 C 1.09375 -50.039062 1.25 -50.34375 1.5625 -50.65625 C 1.882812 -50.976562 2.265625 -51.140625 2.703125 -51.140625 L 16.296875 -51.140625 C 18.046875 -51.140625 19.140625 -50.332031 19.578125 -48.71875 L 26.515625 -21.546875 L 33.453125 -48.71875 C 33.890625 -50.332031 34.988281 -51.140625 36.75 -51.140625 Z M 36.75 -51.140625 "
               id="path129" />
          </g>
        </g>
      </g>
      <g
         fill="#ffffff"
         fill-opacity="1"
         id="g135">
        <g
           transform="translate(54.153191, 68.291659)"
           id="g134">
          <g
             id="g133">
            <path
               d="M 3.4375 -35.0625 C 3.4375 -40.03125 5.492188 -44.070312 9.609375 -47.1875 C 13.722656 -50.300781 19.125 -51.859375 25.8125 -51.859375 C 32.507812 -51.859375 37.988281 -50.226562 42.25 -46.96875 C 46.519531 -43.707031 48.65625 -40.300781 48.65625 -36.75 C 48.65625 -36.300781 48.492188 -35.921875 48.171875 -35.609375 C 47.859375 -35.296875 47.503906 -35.140625 47.109375 -35.140625 L 32.5 -35.140625 C 31.382812 -35.140625 30.363281 -35.550781 29.4375 -36.375 C 28.507812 -37.207031 27.269531 -37.625 25.71875 -37.625 C 23.375 -37.625 22.203125 -36.941406 22.203125 -35.578125 C 22.203125 -34.847656 22.773438 -34.238281 23.921875 -33.75 C 25.066406 -33.257812 27.195312 -32.820312 30.3125 -32.4375 C 37.570312 -31.507812 42.742188 -29.816406 45.828125 -27.359375 C 48.921875 -24.898438 50.46875 -21.171875 50.46875 -16.171875 C 50.46875 -11.179688 48.191406 -7.113281 43.640625 -3.96875 C 39.085938 -0.832031 33.132812 0.734375 25.78125 0.734375 C 18.425781 0.734375 12.65625 -0.773438 8.46875 -3.796875 C 4.28125 -6.816406 2.1875 -10.492188 2.1875 -14.828125 C 2.1875 -15.265625 2.34375 -15.640625 2.65625 -15.953125 C 2.976562 -16.273438 3.359375 -16.4375 3.796875 -16.4375 L 17.671875 -16.4375 C 18.703125 -16.4375 19.835938 -15.945312 21.078125 -14.96875 C 22.316406 -14 24.03125 -13.515625 26.21875 -13.515625 C 29.875 -13.515625 31.703125 -14.195312 31.703125 -15.5625 C 31.703125 -16.4375 31.046875 -17.101562 29.734375 -17.5625 C 28.421875 -18.03125 25.9375 -18.507812 22.28125 -19 C 9.71875 -20.644531 3.4375 -26 3.4375 -35.0625 Z M 3.4375 -35.0625 "
               id="path132" />
          </g>
        </g>
      </g>
      <g
         fill="#ffffff"
         fill-opacity="1"
         id="g138">
        <g
           transform="translate(107.551052, 68.291659)"
           id="g137">
          <g
             id="g136">
            <path
               d="M 22.28125 -31.703125 L 22.28125 -19.4375 C 22.28125 -15.488281 24.082031 -13.515625 27.6875 -13.515625 C 30.457031 -13.515625 32.28125 -14.828125 33.15625 -17.453125 C 33.40625 -18.285156 33.710938 -18.847656 34.078125 -19.140625 C 34.441406 -19.429688 35.035156 -19.578125 35.859375 -19.578125 L 50.765625 -19.578125 C 51.203125 -19.578125 51.578125 -19.414062 51.890625 -19.09375 C 52.210938 -18.78125 52.375 -18.40625 52.375 -17.96875 C 52.375 -13.726562 51.15625 -10.175781 48.71875 -7.3125 C 44.238281 -1.945312 37.253906 0.734375 27.765625 0.734375 C 20.304688 0.734375 14.359375 -0.90625 9.921875 -4.1875 C 5.492188 -7.476562 3.28125 -12.535156 3.28125 -19.359375 L 3.28125 -31.78125 C 3.28125 -38.445312 5.546875 -43.457031 10.078125 -46.8125 C 14.609375 -50.175781 20.503906 -51.859375 27.765625 -51.859375 C 37.253906 -51.859375 44.238281 -49.179688 48.71875 -43.828125 C 51.15625 -40.953125 52.375 -37.394531 52.375 -33.15625 C 52.375 -32.71875 52.210938 -32.34375 51.890625 -32.03125 C 51.578125 -31.71875 51.203125 -31.5625 50.765625 -31.5625 L 35.859375 -31.5625 C 35.085938 -31.5625 34.519531 -31.707031 34.15625 -32 C 33.789062 -32.289062 33.457031 -32.847656 33.15625 -33.671875 C 32.238281 -36.304688 30.414062 -37.625 27.6875 -37.625 C 24.082031 -37.625 22.28125 -35.648438 22.28125 -31.703125 Z M 22.28125 -31.703125 "
               id="path135" />
          </g>
        </g>
      </g>
      <g
         fill="#ffffff"
         fill-opacity="1"
         id="g141">
        <g
           transform="translate(162.848157, 68.291659)"
           id="g140">
          <g
             id="g139">
            <path
               d="M 9.96875 -46.453125 C 14.425781 -50.054688 20.332031 -51.859375 27.6875 -51.859375 C 35.039062 -51.859375 40.941406 -50.046875 45.390625 -46.421875 C 49.847656 -42.796875 52.078125 -37.695312 52.078125 -31.125 L 52.078125 -19.71875 C 52.078125 -13.050781 49.875 -7.972656 45.46875 -4.484375 C 41.0625 -1.003906 35.132812 0.734375 27.6875 0.734375 C 20.238281 0.734375 14.304688 -1.003906 9.890625 -4.484375 C 5.484375 -7.972656 3.28125 -13.050781 3.28125 -19.71875 L 3.28125 -31.125 C 3.28125 -37.738281 5.507812 -42.847656 9.96875 -46.453125 Z M 23.734375 -14.96875 C 24.710938 -14 26.03125 -13.515625 27.6875 -13.515625 C 29.34375 -13.515625 30.65625 -14 31.625 -14.96875 C 32.601562 -15.945312 33.09375 -17.4375 33.09375 -19.4375 L 33.09375 -31.703125 C 33.09375 -33.648438 32.601562 -35.125 31.625 -36.125 C 30.65625 -37.125 29.34375 -37.625 27.6875 -37.625 C 26.03125 -37.625 24.710938 -37.125 23.734375 -36.125 C 22.765625 -35.125 22.28125 -33.648438 22.28125 -31.703125 L 22.28125 -19.4375 C 22.28125 -17.4375 22.765625 -15.945312 23.734375 -14.96875 Z M 23.734375 -14.96875 "
               id="path138" />
          </g>
        </g>
      </g>
      <g
         fill="#ffffff"
         fill-opacity="1"
         id="g144">
        <g
           transform="translate(218.948776, 68.291659)"
           id="g143">
          <g
             id="g142">
            <path
               d="M 6.71875 -51.140625 L 27.765625 -51.140625 C 34.867188 -51.140625 40.722656 -49.375 45.328125 -45.84375 C 49.929688 -42.3125 52.234375 -37.378906 52.234375 -31.046875 L 52.234375 -20.15625 C 52.234375 -13.539062 49.988281 -8.523438 45.5 -5.109375 C 41.019531 -1.703125 35.128906 0 27.828125 0 L 6.71875 0 C 6.1875 0 5.722656 -0.191406 5.328125 -0.578125 C 4.941406 -0.972656 4.75 -1.4375 4.75 -1.96875 L 4.75 -49.15625 C 4.75 -49.695312 4.941406 -50.160156 5.328125 -50.546875 C 5.722656 -50.941406 6.1875 -51.140625 6.71875 -51.140625 Z M 23.015625 -36.890625 L 23.015625 -14.25 L 27.765625 -14.25 C 29.410156 -14.25 30.734375 -14.742188 31.734375 -15.734375 C 32.734375 -16.734375 33.234375 -18.207031 33.234375 -20.15625 L 33.234375 -31.046875 C 33.234375 -34.941406 31.410156 -36.890625 27.765625 -36.890625 Z M 23.015625 -36.890625 "
               id="path141" />
          </g>
        </g>
      </g>
      <g
         fill="#ffffff"
         fill-opacity="1"
         id="g147">
        <g
           transform="translate(275.195502, 68.291659)"
           id="g146">
          <g
             id="g145">
            <path
               d="M 22.28125 -14.25 L 44.78125 -14.25 C 45.3125 -14.25 45.769531 -14.050781 46.15625 -13.65625 C 46.550781 -13.269531 46.75 -12.804688 46.75 -12.265625 L 46.75 -1.96875 C 46.75 -1.4375 46.550781 -0.972656 46.15625 -0.578125 C 45.769531 -0.191406 45.3125 0 44.78125 0 L 6.71875 0 C 6.1875 0 5.722656 -0.191406 5.328125 -0.578125 C 4.941406 -0.972656 4.75 -1.4375 4.75 -1.96875 L 4.75 -49.15625 C 4.75 -49.695312 4.941406 -50.160156 5.328125 -50.546875 C 5.722656 -50.941406 6.1875 -51.140625 6.71875 -51.140625 L 44.1875 -51.140625 C 44.726562 -51.140625 45.191406 -50.941406 45.578125 -50.546875 C 45.972656 -50.160156 46.171875 -49.695312 46.171875 -49.15625 L 46.171875 -38.859375 C 46.171875 -38.328125 45.972656 -37.863281 45.578125 -37.46875 C 45.191406 -37.082031 44.726562 -36.890625 44.1875 -36.890625 L 22.28125 -36.890625 L 22.28125 -32.28125 L 42.59375 -32.28125 C 43.125 -32.28125 43.582031 -32.085938 43.96875 -31.703125 C 44.363281 -31.316406 44.5625 -30.851562 44.5625 -30.3125 L 44.5625 -20.8125 C 44.5625 -20.28125 44.363281 -19.816406 43.96875 -19.421875 C 43.582031 -19.035156 43.125 -18.84375 42.59375 -18.84375 L 22.28125 -18.84375 Z M 22.28125 -14.25 "
               id="path144" />
          </g>
        </g>
      </g>
      <g
         fill="#ffffff"
         fill-opacity="1"
         id="g150">
        <g
           transform="translate(326.694133, 68.291659)"
           id="g149">
          <g
             id="g148" />
        </g>
      </g>
      <g
         fill="#ffffff"
         fill-opacity="1"
         id="g153">
        <g
           transform="translate(348.608438, 68.291659)"
           id="g152">
          <g
             id="g151">
            <path
               d="M 6.71875 -51.140625 L 43.53125 -51.140625 C 44.070312 -51.140625 44.535156 -50.941406 44.921875 -50.546875 C 45.316406 -50.160156 45.515625 -49.695312 45.515625 -49.15625 L 45.515625 -38.0625 C 45.515625 -37.519531 45.316406 -37.050781 44.921875 -36.65625 C 44.535156 -36.269531 44.070312 -36.078125 43.53125 -36.078125 L 22.640625 -36.078125 L 22.640625 -30.6875 L 42.078125 -30.6875 C 42.609375 -30.6875 43.066406 -30.488281 43.453125 -30.09375 C 43.847656 -29.707031 44.046875 -29.242188 44.046875 -28.703125 L 44.046875 -17.671875 C 44.046875 -17.140625 43.847656 -16.675781 43.453125 -16.28125 C 43.066406 -15.894531 42.609375 -15.703125 42.078125 -15.703125 L 22.640625 -15.703125 L 22.640625 -1.96875 C 22.640625 -1.4375 22.441406 -0.972656 22.046875 -0.578125 C 21.660156 -0.191406 21.203125 0 20.671875 0 L 6.71875 0 C 6.1875 0 5.722656 -0.191406 5.328125 -0.578125 C 4.941406 -0.972656 4.75 -1.4375 4.75 -1.96875 L 4.75 -49.15625 C 4.75 -49.695312 4.941406 -50.160156 5.328125 -50.546875 C 5.722656 -50.941406 6.1875 -51.140625 6.71875 -51.140625 Z M 6.71875 -51.140625 "
               id="path150" />
          </g>
        </g>
      </g>
      <g
         fill="#ffffff"
         fill-opacity="1"
         id="g156">
        <g
           transform="translate(397.769545, 68.291659)"
           id="g155">
          <g
             id="g154">
            <path
               d="M 51.796875 -2.40625 C 51.941406 -2.113281 52.015625 -1.796875 52.015625 -1.453125 C 52.015625 -1.117188 51.851562 -0.789062 51.53125 -0.46875 C 51.21875 -0.15625 50.84375 0 50.40625 0 L 35.421875 0 C 33.910156 0 32.863281 -0.65625 32.28125 -1.96875 L 26 -15.921875 L 23.015625 -15.921875 L 23.015625 -1.96875 C 23.015625 -1.4375 22.816406 -0.972656 22.421875 -0.578125 C 22.035156 -0.191406 21.570312 0 21.03125 0 L 6.71875 0 C 6.1875 0 5.722656 -0.191406 5.328125 -0.578125 C 4.941406 -0.972656 4.75 -1.4375 4.75 -1.96875 L 4.75 -49.15625 C 4.75 -49.695312 4.941406 -50.160156 5.328125 -50.546875 C 5.722656 -50.941406 6.1875 -51.140625 6.71875 -51.140625 L 28.34375 -51.140625 C 35.351562 -51.140625 40.828125 -49.566406 44.765625 -46.421875 C 48.710938 -43.273438 50.6875 -38.769531 50.6875 -32.90625 C 50.6875 -27.039062 48.0625 -22.425781 42.8125 -19.0625 Z M 23.015625 -37.546875 L 23.015625 -29.796875 L 28.34375 -29.796875 C 29.414062 -29.796875 30.242188 -30.148438 30.828125 -30.859375 C 31.410156 -31.566406 31.703125 -32.457031 31.703125 -33.53125 C 31.703125 -34.601562 31.421875 -35.539062 30.859375 -36.34375 C 30.296875 -37.144531 29.457031 -37.546875 28.34375 -37.546875 Z M 23.015625 -37.546875 "
               id="path153" />
          </g>
        </g>
      </g>
      <g
         fill="#ffffff"
         fill-opacity="1"
         id="g159">
        <g
           transform="translate(452.701403, 68.291659)"
           id="g158">
          <g
             id="g157">
            <path
               d="M 9.96875 -46.453125 C 14.425781 -50.054688 20.332031 -51.859375 27.6875 -51.859375 C 35.039062 -51.859375 40.941406 -50.046875 45.390625 -46.421875 C 49.847656 -42.796875 52.078125 -37.695312 52.078125 -31.125 L 52.078125 -19.71875 C 52.078125 -13.050781 49.875 -7.972656 45.46875 -4.484375 C 41.0625 -1.003906 35.132812 0.734375 27.6875 0.734375 C 20.238281 0.734375 14.304688 -1.003906 9.890625 -4.484375 C 5.484375 -7.972656 3.28125 -13.050781 3.28125 -19.71875 L 3.28125 -31.125 C 3.28125 -37.738281 5.507812 -42.847656 9.96875 -46.453125 Z M 23.734375 -14.96875 C 24.710938 -14 26.03125 -13.515625 27.6875 -13.515625 C 29.34375 -13.515625 30.65625 -14 31.625 -14.96875 C 32.601562 -15.945312 33.09375 -17.4375 33.09375 -19.4375 L 33.09375 -31.703125 C 33.09375 -33.648438 32.601562 -35.125 31.625 -36.125 C 30.65625 -37.125 29.34375 -37.625 27.6875 -37.625 C 26.03125 -37.625 24.710938 -37.125 23.734375 -36.125 C 22.765625 -35.125 22.28125 -33.648438 22.28125 -31.703125 L 22.28125 -19.4375 C 22.28125 -17.4375 22.765625 -15.945312 23.734375 -14.96875 Z M 23.734375 -14.96875 "
               id="path156" />
          </g>
        </g>
      </g>
      <g
         fill="#ffffff"
         fill-opacity="1"
         id="g162">
        <g
           transform="translate(508.802035, 68.291659)"
           id="g161">
          <g
             id="g160">
            <path
               d="M 52.59375 -2.40625 C 52.738281 -2.164062 52.8125 -1.863281 52.8125 -1.5 C 52.8125 -1.132812 52.648438 -0.789062 52.328125 -0.46875 C 52.015625 -0.15625 51.640625 0 51.203125 0 L 34.546875 0 C 33.140625 0 32.144531 -0.5625 31.5625 -1.6875 L 22.640625 -17.609375 L 22.640625 -1.96875 C 22.640625 -1.4375 22.441406 -0.972656 22.046875 -0.578125 C 21.660156 -0.191406 21.203125 0 20.671875 0 L 6.71875 0 C 6.1875 0 5.722656 -0.191406 5.328125 -0.578125 C 4.941406 -0.972656 4.75 -1.4375 4.75 -1.96875 L 4.75 -49.15625 C 4.75 -49.695312 4.941406 -50.160156 5.328125 -50.546875 C 5.722656 -50.941406 6.1875 -51.140625 6.71875 -51.140625 L 20.671875 -51.140625 C 21.203125 -51.140625 21.660156 -50.941406 22.046875 -50.546875 C 22.441406 -50.160156 22.640625 -49.695312 22.640625 -49.15625 L 22.640625 -34.703125 L 30.90625 -49.53125 C 31.4375 -50.601562 32.410156 -51.140625 33.828125 -51.140625 L 49.96875 -51.140625 C 50.40625 -51.140625 50.78125 -50.976562 51.09375 -50.65625 C 51.414062 -50.34375 51.578125 -50.003906 51.578125 -49.640625 C 51.578125 -49.273438 51.503906 -48.96875 51.359375 -48.71875 L 38.203125 -26.65625 Z M 52.59375 -2.40625 "
               id="path159" />
          </g>
        </g>
      </g>
    </g>
  </g>
  <g
     fill="#ffffff"
     fill-opacity="1"
     id="g167">
    <g
       transform="translate(195.993685, 22.169746)"
       id="g166">
      <g
         id="g165">
        <path
           d="M 3.8125 -8.203125 L 3.8125 0 L 1.328125 0 L 1.328125 -12.78125 L 3.3125 -12.78125 L 9.921875 -4.359375 L 9.921875 -12.765625 L 12.40625 -12.765625 L 12.40625 0 L 10.328125 0 Z M 3.8125 -8.203125 "
           id="path164" />
      </g>
    </g>
  </g>
  <g
     fill="#ffffff"
     fill-opacity="1"
     id="g170">
    <g
       transform="translate(210.441831, 22.169746)"
       id="g169">
      <g
         id="g168">
        <path
           d="M 6.78125 0.09375 C 5.84375 0.09375 4.992188 -0.0820312 4.234375 -0.4375 C 3.472656 -0.800781 2.816406 -1.289062 2.265625 -1.90625 C 1.722656 -2.53125 1.300781 -3.226562 1 -4 C 0.707031 -4.78125 0.5625 -5.578125 0.5625 -6.390625 C 0.5625 -7.242188 0.71875 -8.054688 1.03125 -8.828125 C 1.351562 -9.597656 1.789062 -10.285156 2.34375 -10.890625 C 2.90625 -11.503906 3.566406 -11.988281 4.328125 -12.34375 C 5.085938 -12.695312 5.925781 -12.875 6.84375 -12.875 C 7.757812 -12.875 8.597656 -12.6875 9.359375 -12.3125 C 10.128906 -11.9375 10.78125 -11.4375 11.3125 -10.8125 C 11.851562 -10.1875 12.273438 -9.488281 12.578125 -8.71875 C 12.878906 -7.957031 13.03125 -7.171875 13.03125 -6.359375 C 13.03125 -5.515625 12.875 -4.703125 12.5625 -3.921875 C 12.25 -3.148438 11.8125 -2.460938 11.25 -1.859375 C 10.695312 -1.253906 10.039062 -0.773438 9.28125 -0.421875 C 8.519531 -0.078125 7.6875 0.09375 6.78125 0.09375 Z M 3.078125 -6.390625 C 3.078125 -5.835938 3.160156 -5.300781 3.328125 -4.78125 C 3.492188 -4.269531 3.734375 -3.8125 4.046875 -3.40625 C 4.367188 -3.007812 4.757812 -2.691406 5.21875 -2.453125 C 5.6875 -2.222656 6.210938 -2.109375 6.796875 -2.109375 C 7.398438 -2.109375 7.9375 -2.226562 8.40625 -2.46875 C 8.875 -2.71875 9.265625 -3.050781 9.578125 -3.46875 C 9.890625 -3.882812 10.125 -4.34375 10.28125 -4.84375 C 10.445312 -5.351562 10.53125 -5.867188 10.53125 -6.390625 C 10.53125 -6.941406 10.441406 -7.472656 10.265625 -7.984375 C 10.097656 -8.492188 9.851562 -8.945312 9.53125 -9.34375 C 9.207031 -9.75 8.816406 -10.066406 8.359375 -10.296875 C 7.898438 -10.535156 7.378906 -10.65625 6.796875 -10.65625 C 6.191406 -10.65625 5.65625 -10.53125 5.1875 -10.28125 C 4.726562 -10.039062 4.34375 -9.710938 4.03125 -9.296875 C 3.71875 -8.890625 3.476562 -8.4375 3.3125 -7.9375 C 3.15625 -7.4375 3.078125 -6.921875 3.078125 -6.390625 Z M 3.078125 -6.390625 "
           id="path167" />
      </g>
    </g>
  </g>
  <g
     fill="#ffffff"
     fill-opacity="1"
     id="g173">
    <g
       transform="translate(224.764029, 22.169746)"
       id="g172">
      <g
         id="g171" />
    </g>
  </g>
  <g
     fill="#ffffff"
     fill-opacity="1"
     id="g176">
    <g
       transform="translate(229.801981, 22.169746)"
       id="g175">
      <g
         id="g174">
        <path
           d="M 10.890625 -10.609375 L 6.796875 -10.609375 L 6.796875 0 L 4.34375 0 L 4.34375 -10.609375 L 0.25 -10.609375 L 0.25 -12.78125 L 10.890625 -12.78125 Z M 10.890625 -10.609375 "
           id="path173" />
      </g>
    </g>
  </g>
  <g
     fill="#ffffff"
     fill-opacity="1"
     id="g179">
    <g
       transform="translate(241.659174, 22.169746)"
       id="g178">
      <g
         id="g177">
        <path
           d="M 10.203125 -2.171875 L 10.203125 0 L 1.328125 0 L 1.328125 -12.78125 L 10.046875 -12.78125 L 10.046875 -10.609375 L 3.8125 -10.609375 L 3.8125 -7.53125 L 9.203125 -7.53125 L 9.203125 -5.515625 L 3.8125 -5.515625 L 3.8125 -2.171875 Z M 10.203125 -2.171875 "
           id="path176" />
      </g>
    </g>
  </g>
  <g
     fill="#ffffff"
     fill-opacity="1"
     id="g182">
    <g
       transform="translate(253.192492, 22.169746)"
       id="g181">
      <g
         id="g180">
        <path
           d="M 1.328125 0 L 1.328125 -12.78125 L 3.8125 -12.78125 L 3.8125 -2.171875 L 10.328125 -2.171875 L 10.328125 0 Z M 1.328125 0 "
           id="path179" />
      </g>
    </g>
  </g>
  <g
     fill="#ffffff"
     fill-opacity="1"
     id="g185">
    <g
       transform="translate(264.419942, 22.169746)"
       id="g184">
      <g
         id="g183">
        <path
           d="M 10.203125 -2.171875 L 10.203125 0 L 1.328125 0 L 1.328125 -12.78125 L 10.046875 -12.78125 L 10.046875 -10.609375 L 3.8125 -10.609375 L 3.8125 -7.53125 L 9.203125 -7.53125 L 9.203125 -5.515625 L 3.8125 -5.515625 L 3.8125 -2.171875 Z M 10.203125 -2.171875 "
           id="path182" />
      </g>
    </g>
  </g>
  <g
     fill="#ffffff"
     fill-opacity="1"
     id="g188">
    <g
       transform="translate(275.95326, 22.169746)"
       id="g187">
      <g
         id="g186">
        <path
           d="M 11.75 0 L 11.75 -8.390625 L 8.484375 -2.140625 L 7.09375 -2.140625 L 3.8125 -8.390625 L 3.8125 0 L 1.328125 0 L 1.328125 -12.78125 L 4 -12.78125 L 7.78125 -5.515625 L 11.59375 -12.78125 L 14.234375 -12.78125 L 14.234375 0 Z M 11.75 0 "
           id="path185" />
      </g>
    </g>
  </g>
  <g
     fill="#ffffff"
     fill-opacity="1"
     id="g191">
    <g
       transform="translate(292.236656, 22.169746)"
       id="g190">
      <g
         id="g189">
        <path
           d="M 10.203125 -2.171875 L 10.203125 0 L 1.328125 0 L 1.328125 -12.78125 L 10.046875 -12.78125 L 10.046875 -10.609375 L 3.8125 -10.609375 L 3.8125 -7.53125 L 9.203125 -7.53125 L 9.203125 -5.515625 L 3.8125 -5.515625 L 3.8125 -2.171875 Z M 10.203125 -2.171875 "
           id="path188" />
      </g>
    </g>
  </g>
  <g
     fill="#ffffff"
     fill-opacity="1"
     id="g194">
    <g
       transform="translate(303.769974, 22.169746)"
       id="g193">
      <g
         id="g192">
        <path
           d="M 10.890625 -10.609375 L 6.796875 -10.609375 L 6.796875 0 L 4.34375 0 L 4.34375 -10.609375 L 0.25 -10.609375 L 0.25 -12.78125 L 10.890625 -12.78125 Z M 10.890625 -10.609375 "
           id="path191" />
      </g>
    </g>
  </g>
  <g
     fill="#ffffff"
     fill-opacity="1"
     id="g197">
    <g
       transform="translate(315.627167, 22.169746)"
       id="g196">
      <g
         id="g195">
        <path
           d="M 1.328125 0 L 1.328125 -12.78125 L 6.984375 -12.78125 C 7.566406 -12.78125 8.109375 -12.660156 8.609375 -12.421875 C 9.109375 -12.179688 9.539062 -11.851562 9.90625 -11.4375 C 10.269531 -11.03125 10.550781 -10.578125 10.75 -10.078125 C 10.945312 -9.578125 11.046875 -9.0625 11.046875 -8.53125 C 11.046875 -7.988281 10.953125 -7.46875 10.765625 -6.96875 C 10.585938 -6.476562 10.320312 -6.046875 9.96875 -5.671875 C 9.625 -5.296875 9.21875 -5.007812 8.75 -4.8125 L 11.65625 0 L 8.921875 0 L 6.296875 -4.28125 L 3.8125 -4.28125 L 3.8125 0 Z M 3.8125 -6.46875 L 6.9375 -6.46875 C 7.238281 -6.46875 7.507812 -6.554688 7.75 -6.734375 C 8 -6.921875 8.191406 -7.171875 8.328125 -7.484375 C 8.472656 -7.796875 8.546875 -8.144531 8.546875 -8.53125 C 8.546875 -8.9375 8.460938 -9.289062 8.296875 -9.59375 C 8.128906 -9.90625 7.914062 -10.148438 7.65625 -10.328125 C 7.394531 -10.515625 7.117188 -10.609375 6.828125 -10.609375 L 3.8125 -10.609375 Z M 3.8125 -6.46875 "
           id="path194" />
      </g>
    </g>
  </g>
  <g
     fill="#ffffff"
     fill-opacity="1"
     id="g200">
    <g
       transform="translate(328.312019, 22.169746)"
       id="g199">
      <g
         id="g198">
        <path
           d="M 2.765625 -12.78125 L 5.921875 -6.765625 L 9.125 -12.78125 L 11.8125 -12.78125 L 7.15625 -4.46875 L 7.15625 0 L 4.703125 0 L 4.703125 -4.5 L 0.078125 -12.78125 Z M 2.765625 -12.78125 "
           id="path197" />
      </g>
    </g>
  </g>
  <g
     fill="#ffffff"
     fill-opacity="1"
     id="g203">
    <g
       transform="translate(417.072378, 22.169746)"
       id="g202">
      <g
         id="g201">
        <path
           d="M 0.6875 -2.609375 C 0.84375 -2.503906 1.117188 -2.375 1.515625 -2.21875 C 1.910156 -2.070312 2.378906 -2 2.921875 -2 C 3.390625 -2 3.769531 -2.078125 4.0625 -2.234375 C 4.363281 -2.398438 4.59375 -2.644531 4.75 -2.96875 C 4.914062 -3.289062 5.023438 -3.707031 5.078125 -4.21875 C 5.140625 -4.738281 5.171875 -5.359375 5.171875 -6.078125 L 5.171875 -12.78125 L 7.65625 -12.78125 L 7.65625 -6.28125 C 7.65625 -5.320312 7.597656 -4.445312 7.484375 -3.65625 C 7.378906 -2.863281 7.171875 -2.175781 6.859375 -1.59375 C 6.546875 -1.019531 6.070312 -0.578125 5.4375 -0.265625 C 4.8125 0.0429688 3.976562 0.203125 2.9375 0.203125 C 2.351562 0.203125 1.832031 0.132812 1.375 0 C 0.925781 -0.132812 0.507812 -0.332031 0.125 -0.59375 Z M 0.6875 -2.609375 "
           id="path200" />
      </g>
    </g>
  </g>
  <g
     fill="#ffffff"
     fill-opacity="1"
     id="g206">
    <g
       transform="translate(426.626504, 22.169746)"
       id="g205">
      <g
         id="g204">
        <path
           d="M 6.75 0.09375 C 5.726562 0.09375 4.859375 -0.078125 4.140625 -0.421875 C 3.429688 -0.765625 2.859375 -1.234375 2.421875 -1.828125 C 1.984375 -2.429688 1.660156 -3.113281 1.453125 -3.875 C 1.253906 -4.632812 1.15625 -5.429688 1.15625 -6.265625 L 1.15625 -12.78125 L 3.640625 -12.78125 L 3.640625 -6.265625 C 3.640625 -5.734375 3.6875 -5.21875 3.78125 -4.71875 C 3.882812 -4.226562 4.054688 -3.785156 4.296875 -3.390625 C 4.535156 -2.992188 4.851562 -2.679688 5.25 -2.453125 C 5.644531 -2.222656 6.140625 -2.109375 6.734375 -2.109375 C 7.328125 -2.109375 7.828125 -2.222656 8.234375 -2.453125 C 8.640625 -2.691406 8.957031 -3.007812 9.1875 -3.40625 C 9.425781 -3.800781 9.597656 -4.242188 9.703125 -4.734375 C 9.804688 -5.234375 9.859375 -5.742188 9.859375 -6.265625 L 9.859375 -12.78125 L 12.328125 -12.78125 L 12.328125 -6.265625 C 12.328125 -5.390625 12.222656 -4.566406 12.015625 -3.796875 C 11.804688 -3.023438 11.472656 -2.347656 11.015625 -1.765625 C 10.566406 -1.191406 9.988281 -0.738281 9.28125 -0.40625 C 8.570312 -0.0703125 7.726562 0.09375 6.75 0.09375 Z M 6.75 0.09375 "
           id="path203" />
      </g>
    </g>
  </g>
  <g
     fill="#ffffff"
     fill-opacity="1"
     id="g209">
    <g
       transform="translate(440.840747, 22.169746)"
       id="g208">
      <g
         id="g207">
        <path
           d="M 8.953125 -9.4375 C 8.859375 -9.519531 8.703125 -9.628906 8.484375 -9.765625 C 8.265625 -9.910156 7.992188 -10.050781 7.671875 -10.1875 C 7.359375 -10.320312 7.015625 -10.4375 6.640625 -10.53125 C 6.265625 -10.632812 5.890625 -10.6875 5.515625 -10.6875 C 4.835938 -10.6875 4.328125 -10.5625 3.984375 -10.3125 C 3.640625 -10.0625 3.46875 -9.707031 3.46875 -9.25 C 3.46875 -8.90625 3.578125 -8.628906 3.796875 -8.421875 C 4.015625 -8.222656 4.335938 -8.050781 4.765625 -7.90625 C 5.203125 -7.757812 5.742188 -7.601562 6.390625 -7.4375 C 7.234375 -7.226562 7.960938 -6.976562 8.578125 -6.6875 C 9.191406 -6.394531 9.664062 -6.007812 10 -5.53125 C 10.332031 -5.0625 10.5 -4.4375 10.5 -3.65625 C 10.5 -2.96875 10.367188 -2.378906 10.109375 -1.890625 C 9.859375 -1.410156 9.507812 -1.019531 9.0625 -0.71875 C 8.625 -0.414062 8.125 -0.195312 7.5625 -0.0625 C 7 0.0703125 6.398438 0.140625 5.765625 0.140625 C 5.128906 0.140625 4.488281 0.078125 3.84375 -0.046875 C 3.207031 -0.179688 2.597656 -0.367188 2.015625 -0.609375 C 1.429688 -0.859375 0.890625 -1.160156 0.390625 -1.515625 L 1.5 -3.65625 C 1.601562 -3.539062 1.789062 -3.394531 2.0625 -3.21875 C 2.34375 -3.050781 2.679688 -2.878906 3.078125 -2.703125 C 3.472656 -2.535156 3.90625 -2.390625 4.375 -2.265625 C 4.84375 -2.148438 5.316406 -2.09375 5.796875 -2.09375 C 6.460938 -2.09375 6.96875 -2.203125 7.3125 -2.421875 C 7.664062 -2.648438 7.84375 -2.976562 7.84375 -3.40625 C 7.84375 -3.789062 7.703125 -4.085938 7.421875 -4.296875 C 7.148438 -4.515625 6.769531 -4.703125 6.28125 -4.859375 C 5.789062 -5.023438 5.207031 -5.207031 4.53125 -5.40625 C 3.726562 -5.625 3.054688 -5.875 2.515625 -6.15625 C 1.972656 -6.445312 1.570312 -6.804688 1.3125 -7.234375 C 1.050781 -7.671875 0.921875 -8.210938 0.921875 -8.859375 C 0.921875 -9.734375 1.125 -10.46875 1.53125 -11.0625 C 1.945312 -11.65625 2.507812 -12.101562 3.21875 -12.40625 C 3.925781 -12.71875 4.710938 -12.875 5.578125 -12.875 C 6.179688 -12.875 6.75 -12.804688 7.28125 -12.671875 C 7.8125 -12.535156 8.3125 -12.359375 8.78125 -12.140625 C 9.25 -11.929688 9.671875 -11.703125 10.046875 -11.453125 Z M 8.953125 -9.4375 "
           id="path206" />
      </g>
    </g>
  </g>
  <g
     fill="#ffffff"
     fill-opacity="1"
     id="g212">
    <g
       transform="translate(452.589986, 22.169746)"
       id="g211">
      <g
         id="g210">
        <path
           d="M 10.890625 -10.609375 L 6.796875 -10.609375 L 6.796875 0 L 4.34375 0 L 4.34375 -10.609375 L 0.25 -10.609375 L 0.25 -12.78125 L 10.890625 -12.78125 Z M 10.890625 -10.609375 "
           id="path209" />
      </g>
    </g>
  </g>
  <g
     fill="#ffffff"
     fill-opacity="1"
     id="g215">
    <g
       transform="translate(464.447179, 22.169746)"
       id="g214">
      <g
         id="g213" />
    </g>
  </g>
  <g
     fill="#ffffff"
     fill-opacity="1"
     id="g218">
    <g
       transform="translate(469.485131, 22.169746)"
       id="g217">
      <g
         id="g216">
        <path
           d="M 0.5625 -6.484375 C 0.5625 -7.265625 0.703125 -8.03125 0.984375 -8.78125 C 1.265625 -9.53125 1.675781 -10.210938 2.21875 -10.828125 C 2.757812 -11.441406 3.414062 -11.929688 4.1875 -12.296875 C 4.96875 -12.671875 5.859375 -12.859375 6.859375 -12.859375 C 8.035156 -12.859375 9.050781 -12.597656 9.90625 -12.078125 C 10.769531 -11.554688 11.410156 -10.882812 11.828125 -10.0625 L 9.921875 -8.75 C 9.703125 -9.226562 9.414062 -9.609375 9.0625 -9.890625 C 8.71875 -10.171875 8.347656 -10.367188 7.953125 -10.484375 C 7.554688 -10.597656 7.164062 -10.65625 6.78125 -10.65625 C 6.15625 -10.65625 5.613281 -10.53125 5.15625 -10.28125 C 4.695312 -10.03125 4.3125 -9.695312 4 -9.28125 C 3.6875 -8.875 3.453125 -8.414062 3.296875 -7.90625 C 3.148438 -7.40625 3.078125 -6.90625 3.078125 -6.40625 C 3.078125 -5.84375 3.164062 -5.300781 3.34375 -4.78125 C 3.53125 -4.257812 3.785156 -3.796875 4.109375 -3.390625 C 4.441406 -2.992188 4.835938 -2.675781 5.296875 -2.4375 C 5.765625 -2.207031 6.273438 -2.09375 6.828125 -2.09375 C 7.222656 -2.09375 7.625 -2.15625 8.03125 -2.28125 C 8.4375 -2.414062 8.8125 -2.625 9.15625 -2.90625 C 9.507812 -3.195312 9.78125 -3.570312 9.96875 -4.03125 L 12 -2.859375 C 11.75 -2.222656 11.335938 -1.679688 10.765625 -1.234375 C 10.203125 -0.796875 9.566406 -0.460938 8.859375 -0.234375 C 8.148438 -0.00390625 7.445312 0.109375 6.75 0.109375 C 5.832031 0.109375 4.992188 -0.078125 4.234375 -0.453125 C 3.484375 -0.835938 2.832031 -1.34375 2.28125 -1.96875 C 1.738281 -2.601562 1.316406 -3.3125 1.015625 -4.09375 C 0.710938 -4.882812 0.5625 -5.679688 0.5625 -6.484375 Z M 0.5625 -6.484375 "
           id="path215" />
      </g>
    </g>
  </g>
  <g
     fill="#ffffff"
     fill-opacity="1"
     id="g221">
    <g
       transform="translate(482.547841, 22.169746)"
       id="g220">
      <g
         id="g219">
        <path
           d="M 6.78125 0.09375 C 5.84375 0.09375 4.992188 -0.0820312 4.234375 -0.4375 C 3.472656 -0.800781 2.816406 -1.289062 2.265625 -1.90625 C 1.722656 -2.53125 1.300781 -3.226562 1 -4 C 0.707031 -4.78125 0.5625 -5.578125 0.5625 -6.390625 C 0.5625 -7.242188 0.71875 -8.054688 1.03125 -8.828125 C 1.351562 -9.597656 1.789062 -10.285156 2.34375 -10.890625 C 2.90625 -11.503906 3.566406 -11.988281 4.328125 -12.34375 C 5.085938 -12.695312 5.925781 -12.875 6.84375 -12.875 C 7.757812 -12.875 8.597656 -12.6875 9.359375 -12.3125 C 10.128906 -11.9375 10.78125 -11.4375 11.3125 -10.8125 C 11.851562 -10.1875 12.273438 -9.488281 12.578125 -8.71875 C 12.878906 -7.957031 13.03125 -7.171875 13.03125 -6.359375 C 13.03125 -5.515625 12.875 -4.703125 12.5625 -3.921875 C 12.25 -3.148438 11.8125 -2.460938 11.25 -1.859375 C 10.695312 -1.253906 10.039062 -0.773438 9.28125 -0.421875 C 8.519531 -0.078125 7.6875 0.09375 6.78125 0.09375 Z M 3.078125 -6.390625 C 3.078125 -5.835938 3.160156 -5.300781 3.328125 -4.78125 C 3.492188 -4.269531 3.734375 -3.8125 4.046875 -3.40625 C 4.367188 -3.007812 4.757812 -2.691406 5.21875 -2.453125 C 5.6875 -2.222656 6.210938 -2.109375 6.796875 -2.109375 C 7.398438 -2.109375 7.9375 -2.226562 8.40625 -2.46875 C 8.875 -2.71875 9.265625 -3.050781 9.578125 -3.46875 C 9.890625 -3.882812 10.125 -4.34375 10.28125 -4.84375 C 10.445312 -5.351562 10.53125 -5.867188 10.53125 -6.390625 C 10.53125 -6.941406 10.441406 -7.472656 10.265625 -7.984375 C 10.097656 -8.492188 9.851562 -8.945312 9.53125 -9.34375 C 9.207031 -9.75 8.816406 -10.066406 8.359375 -10.296875 C 7.898438 -10.535156 7.378906 -10.65625 6.796875 -10.65625 C 6.191406 -10.65625 5.65625 -10.53125 5.1875 -10.28125 C 4.726562 -10.039062 4.34375 -9.710938 4.03125 -9.296875 C 3.71875 -8.890625 3.476562 -8.4375 3.3125 -7.9375 C 3.15625 -7.4375 3.078125 -6.921875 3.078125 -6.390625 Z M 3.078125 -6.390625 "
           id="path218" />
      </g>
    </g>
  </g>
  <g
     fill="#ffffff"
     fill-opacity="1"
     id="g224">
    <g
       transform="translate(496.870039, 22.169746)"
       id="g223">
      <g
         id="g222">
        <path
           d="M 1.328125 0 L 1.328125 -12.78125 L 5.96875 -12.78125 C 7.363281 -12.78125 8.53125 -12.492188 9.46875 -11.921875 C 10.40625 -11.347656 11.109375 -10.578125 11.578125 -9.609375 C 12.046875 -8.648438 12.28125 -7.582031 12.28125 -6.40625 C 12.28125 -5.113281 12.019531 -3.984375 11.5 -3.015625 C 10.988281 -2.054688 10.257812 -1.3125 9.3125 -0.78125 C 8.375 -0.257812 7.257812 0 5.96875 0 Z M 9.78125 -6.40625 C 9.78125 -7.238281 9.628906 -7.96875 9.328125 -8.59375 C 9.023438 -9.226562 8.59375 -9.722656 8.03125 -10.078125 C 7.46875 -10.429688 6.78125 -10.609375 5.96875 -10.609375 L 3.8125 -10.609375 L 3.8125 -2.171875 L 5.96875 -2.171875 C 6.789062 -2.171875 7.484375 -2.351562 8.046875 -2.71875 C 8.609375 -3.09375 9.035156 -3.597656 9.328125 -4.234375 C 9.628906 -4.878906 9.78125 -5.601562 9.78125 -6.40625 Z M 9.78125 -6.40625 "
           id="path221" />
      </g>
    </g>
  </g>
  <g
     fill="#ffffff"
     fill-opacity="1"
     id="g227"
     inkscape:export-filename="g227.png"
     inkscape:export-xdpi="96"
     inkscape:export-ydpi="96">
    <g
       transform="translate(510.472521, 22.169746)"
       id="g226">
      <g
         id="g225">
        <path
           d="M 10.203125 -2.171875 L 10.203125 0 L 1.328125 0 L 1.328125 -12.78125 L 10.046875 -12.78125 L 10.046875 -10.609375 L 3.8125 -10.609375 L 3.8125 -7.53125 L 9.203125 -7.53125 L 9.203125 -5.515625 L 3.8125 -5.515625 L 3.8125 -2.171875 Z M 10.203125 -2.171875 "
           id="path224" />
      </g>
    </g>
  </g>
</svg>
