<?xml version="1.0" encoding="UTF-8"?>
<!DOCTYPE svg PUBLIC "-//W3C//DTD SVG 1.1//EN" "http://www.w3.org/Graphics/SVG/1.1/DTD/svg11.dtd">
<!-- Creator: CorelDRAW -->
<svg xmlns="http://www.w3.org/2000/svg" xml:space="preserve" width="116.159mm" height="104.727mm" version="1.1" style="shape-rendering:geometricPrecision; text-rendering:geometricPrecision; image-rendering:optimizeQuality; fill-rule:evenodd; clip-rule:evenodd"
viewBox="0 0 7849.61 7077.13"
 xmlns:xlink="http://www.w3.org/1999/xlink"
 xmlns:xodm="http://www.corel.com/coreldraw/odm/2003">
 <defs>
  <style type="text/css">
   <![CDATA[
    .fil0 {fill:#A9ABAE}
    .fil1 {fill:#727376}
   ]]>
  </style>
 </defs>
 <g id="Layer_x0020_1">
  <metadata id="CorelCorpID_0Corel-Layer"/>
  <g id="_1828215633472">
   <path class="fil0" d="M2611.76 6247.87l2.87 5.86c44.07,-160.31 104.78,-297.23 119.81,-487.48 14.81,-187.45 3.99,-407.82 4.6,-598.95l0.3 -4.37 -0.3 -532.59 0.25 -3.87 -0.17 -533.49 0.14 -2.97 -2.12 -550.89c23.87,-416.47 168.19,-726.67 380.98,-933.33 203.57,-197.72 511.54,-365.62 899.87,-376.9 -2.84,-52.87 -16.04,-54.93 -50.72,-96.34 -42.59,-50.84 -39.07,-35.25 -52.18,-86.28 -55.16,-32.2 -492.48,-583.11 -548.59,-665.66l-1025.27 -1287.71c-16.56,-26.73 -13.37,-18.04 -19.3,-43.88 -63.57,-40.8 -58.25,-41.11 -114.92,-43.11 -472.89,-16.68 -1038.05,363.44 -1249,867.06 -139.76,333.65 -107.85,622.85 -106.93,1017.64l-0.04 3343.96c-0.99,374.64 48.04,713.16 -129.81,1000.9 -134.44,217.48 -351.88,376.48 -720,400.87l-1.23 426.62c367.98,14.52 1386.77,36.63 1686.87,-43.74 491.32,-131.57 695.5,-395.56 924.89,-771.33z"/>
   <path class="fil0" d="M5100.34 3544.06c-15.16,722.42 -554.86,1273.55 -1281.12,1293.67 22.16,89.92 68.85,89.27 97.74,161.73l532.04 659.81c23.92,23.04 15.74,13.02 21.7,41.94 73.33,52.2 161.87,185.94 223.48,263.99 38.7,49.03 67.43,85.66 103.12,129.25 68.98,84.27 84.68,78.08 100.2,151.18 46.46,18.33 23.18,3.46 60.43,45.9 11.54,13.14 24.71,32.54 38.92,50.66 119.16,151.91 515.43,630.93 564.14,721.03 661.52,22.98 1160.12,-445.54 1336.42,-909.42 124.16,-326.66 92.61,-622.5 93.04,-1008.68l0.22 -3326.08c0.39,-359.68 -46.49,-716.39 127.5,-989.41 137.08,-215.11 356.38,-374.7 711.58,-398.49 31.73,-90.86 17.28,-316.81 11.79,-421.56 -225.25,-15.69 -1358.26,-13.12 -1559.61,15.18 -432.19,60.72 -770.71,338.15 -948.71,611.73 -279.35,429.35 -229.51,764.79 -230.21,1343.48 -0.61,507.81 21.36,1062.4 -2.67,1564.07z"/>
   <path class="fil1" d="M2737.13 3539.1c46.43,32.35 78.11,65.75 88.76,115.85 68.31,34.95 32.07,-5.91 60.89,69.73 46.3,28.08 86.28,90.94 129.86,144.97 43.77,54.26 90.78,97.61 107.67,155.08 63.96,32.36 54.92,37.09 84,101.03 33.36,8.96 46.49,37.91 80.36,79.69 30.69,37.86 60.49,66.24 72.85,113.84 65.74,35.5 30.15,-5.17 58.66,68.46 50.26,25.08 136.3,141.77 151.09,191.74 64.12,33.32 41.32,16.29 63.75,76.06 77.77,36.69 88.98,141.63 184.19,182.19 726.27,-20.12 1265.96,-571.25 1281.12,-1293.67 -39.43,-31.27 -52.11,-55.42 -85.57,-99.74 -29.29,-38.8 -35.44,-59.92 -71.81,-69.62 -45.84,-95.88 -159.26,-215.15 -230.68,-306.64 -76.13,-97.51 -146.2,-180.93 -221.85,-278.83 -66.83,-86.48 -401.15,-527.93 -472.44,-560.37 -388.33,11.29 -696.3,179.19 -899.87,376.9 -212.79,206.66 -357.11,516.85 -380.98,933.33z"/>
  </g>
 </g>
</svg>
